<svg width="306" height="364" viewBox="0 0 306 364" fill="none" xmlns="http://www.w3.org/2000/svg">
<g filter="url(#filter0_d)">
<path d="M102.281 289.078H111.75V296.156H102.281V312H93.5625V296.156H62.4844V291.047L93.0469 243.75H102.281V289.078ZM72.3281 289.078H93.5625V255.609L92.5312 257.484L72.3281 289.078ZM162.375 282.891C162.375 293.047 160.641 300.594 157.172 305.531C153.703 310.469 148.281 312.938 140.906 312.938C133.625 312.938 128.234 310.531 124.734 305.719C121.234 300.875 119.422 293.656 119.297 284.062V272.484C119.297 262.453 121.031 255 124.5 250.125C127.969 245.25 133.406 242.812 140.812 242.812C148.156 242.812 153.562 245.172 157.031 249.891C160.5 254.578 162.281 261.828 162.375 271.641V282.891ZM153.703 271.031C153.703 263.688 152.672 258.344 150.609 255C148.547 251.625 145.281 249.938 140.812 249.938C136.375 249.938 133.141 251.609 131.109 254.953C129.078 258.297 128.031 263.438 127.969 270.375V284.25C127.969 291.625 129.031 297.078 131.156 300.609C133.312 304.109 136.562 305.859 140.906 305.859C145.188 305.859 148.359 304.203 150.422 300.891C152.516 297.578 153.609 292.359 153.703 285.234V271.031ZM210.094 289.078H219.562V296.156H210.094V312H201.375V296.156H170.297V291.047L200.859 243.75H210.094V289.078ZM180.141 289.078H201.375V255.609L200.344 257.484L180.141 289.078Z" fill="#ED7878"/>
</g>
<path d="M8.77344 351.543C8.77344 350.285 9.01562 349.164 9.5 348.18C9.98438 347.195 10.6797 346.434 11.5859 345.895C12.5 345.355 13.5586 345.086 14.7617 345.086C16.4727 345.086 17.8672 345.609 18.9453 346.656C20.0312 347.703 20.6367 349.125 20.7617 350.922L20.7852 351.789C20.7852 353.734 20.2422 355.297 19.1562 356.477C18.0703 357.648 16.6133 358.234 14.7852 358.234C12.957 358.234 11.4961 357.648 10.4023 356.477C9.31641 355.305 8.77344 353.711 8.77344 351.695V351.543ZM12.1602 351.789C12.1602 352.992 12.3867 353.914 12.8398 354.555C13.293 355.188 13.9414 355.504 14.7852 355.504C15.6055 355.504 16.2461 355.191 16.707 354.566C17.168 353.934 17.3984 352.926 17.3984 351.543C17.3984 350.363 17.168 349.449 16.707 348.801C16.2461 348.152 15.5977 347.828 14.7617 347.828C13.9336 347.828 13.293 348.152 12.8398 348.801C12.3867 349.441 12.1602 350.438 12.1602 351.789ZM22.3438 351.543C22.3438 350.285 22.5859 349.164 23.0703 348.18C23.5547 347.195 24.25 346.434 25.1562 345.895C26.0703 345.355 27.1289 345.086 28.332 345.086C30.043 345.086 31.4375 345.609 32.5156 346.656C33.6016 347.703 34.207 349.125 34.332 350.922L34.3555 351.789C34.3555 353.734 33.8125 355.297 32.7266 356.477C31.6406 357.648 30.1836 358.234 28.3555 358.234C26.5273 358.234 25.0664 357.648 23.9727 356.477C22.8867 355.305 22.3438 353.711 22.3438 351.695V351.543ZM25.7305 351.789C25.7305 352.992 25.957 353.914 26.4102 354.555C26.8633 355.188 27.5117 355.504 28.3555 355.504C29.1758 355.504 29.8164 355.191 30.2773 354.566C30.7383 353.934 30.9688 352.926 30.9688 351.543C30.9688 350.363 30.7383 349.449 30.2773 348.801C29.8164 348.152 29.168 347.828 28.332 347.828C27.5039 347.828 26.8633 348.152 26.4102 348.801C25.957 349.441 25.7305 350.438 25.7305 351.789ZM47.8555 351.777C47.8555 353.73 47.4102 355.297 46.5195 356.477C45.6367 357.648 44.4414 358.234 42.9336 358.234C41.6523 358.234 40.6172 357.789 39.8281 356.898V362.875H36.4414V345.32H39.582L39.6992 346.562C40.5195 345.578 41.5898 345.086 42.9102 345.086C44.4727 345.086 45.6875 345.664 46.5547 346.82C47.4219 347.977 47.8555 349.57 47.8555 351.602V351.777ZM44.4688 351.531C44.4688 350.352 44.2578 349.441 43.8359 348.801C43.4219 348.16 42.8164 347.84 42.0195 347.84C40.957 347.84 40.2266 348.246 39.8281 349.059V354.25C40.2422 355.086 40.9805 355.504 42.043 355.504C43.6602 355.504 44.4688 354.18 44.4688 351.531ZM56.832 354.496C56.832 354.082 56.625 353.758 56.2109 353.523C55.8047 353.281 55.1484 353.066 54.2422 352.879C51.2266 352.246 49.7188 350.965 49.7188 349.035C49.7188 347.91 50.1836 346.973 51.1133 346.223C52.0508 345.465 53.2734 345.086 54.7812 345.086C56.3906 345.086 57.6758 345.465 58.6367 346.223C59.6055 346.98 60.0898 347.965 60.0898 349.176H56.7031C56.7031 348.691 56.5469 348.293 56.2344 347.98C55.9219 347.66 55.4336 347.5 54.7695 347.5C54.1992 347.5 53.7578 347.629 53.4453 347.887C53.1328 348.145 52.9766 348.473 52.9766 348.871C52.9766 349.246 53.1523 349.551 53.5039 349.785C53.8633 350.012 54.4648 350.211 55.3086 350.383C56.1523 350.547 56.8633 350.734 57.4414 350.945C59.2305 351.602 60.125 352.738 60.125 354.355C60.125 355.512 59.6289 356.449 58.6367 357.168C57.6445 357.879 56.3633 358.234 54.793 358.234C53.7305 358.234 52.7852 358.047 51.957 357.672C51.1367 357.289 50.4922 356.77 50.0234 356.113C49.5547 355.449 49.3203 354.734 49.3203 353.969H52.5312C52.5625 354.57 52.7852 355.031 53.1992 355.352C53.6133 355.672 54.168 355.832 54.8633 355.832C55.5117 355.832 56 355.711 56.3281 355.469C56.6641 355.219 56.832 354.895 56.832 354.496ZM63.1953 362.277L61.4258 361.352L61.8477 360.59C62.3711 359.637 62.6406 358.688 62.6562 357.742V355.117H65.5156L65.5039 357.461C65.4961 358.328 65.2773 359.203 64.8477 360.086C64.418 360.969 63.8672 361.699 63.1953 362.277ZM85.5664 351.777C85.5664 353.73 85.1211 355.297 84.2305 356.477C83.3477 357.648 82.1523 358.234 80.6445 358.234C79.3633 358.234 78.3281 357.789 77.5391 356.898V362.875H74.1523V345.32H77.293L77.4102 346.562C78.2305 345.578 79.3008 345.086 80.6211 345.086C82.1836 345.086 83.3984 345.664 84.2656 346.82C85.1328 347.977 85.5664 349.57 85.5664 351.602V351.777ZM82.1797 351.531C82.1797 350.352 81.9688 349.441 81.5469 348.801C81.1328 348.16 80.5273 347.84 79.7305 347.84C78.668 347.84 77.9375 348.246 77.5391 349.059V354.25C77.9531 355.086 78.6914 355.504 79.7539 355.504C81.3711 355.504 82.1797 354.18 82.1797 351.531ZM95.0234 358C94.8672 357.695 94.7539 357.316 94.6836 356.863C93.8633 357.777 92.7969 358.234 91.4844 358.234C90.2422 358.234 89.2109 357.875 88.3906 357.156C87.5781 356.438 87.1719 355.531 87.1719 354.438C87.1719 353.094 87.668 352.062 88.6602 351.344C89.6602 350.625 91.1016 350.262 92.9844 350.254H94.543V349.527C94.543 348.941 94.3906 348.473 94.0859 348.121C93.7891 347.77 93.3164 347.594 92.668 347.594C92.0977 347.594 91.6484 347.73 91.3203 348.004C91 348.277 90.8398 348.652 90.8398 349.129H87.4531C87.4531 348.395 87.6797 347.715 88.1328 347.09C88.5859 346.465 89.2266 345.977 90.0547 345.625C90.8828 345.266 91.8125 345.086 92.8438 345.086C94.4062 345.086 95.6445 345.48 96.5586 346.27C97.4805 347.051 97.9414 348.152 97.9414 349.574V355.07C97.9492 356.273 98.1172 357.184 98.4453 357.801V358H95.0234ZM92.2227 355.645C92.7227 355.645 93.1836 355.535 93.6055 355.316C94.0273 355.09 94.3398 354.789 94.543 354.414V352.234H93.2773C91.582 352.234 90.6797 352.82 90.5703 353.992L90.5586 354.191C90.5586 354.613 90.707 354.961 91.0039 355.234C91.3008 355.508 91.707 355.645 92.2227 355.645ZM100.051 351.566C100.051 349.621 100.512 348.055 101.434 346.867C102.363 345.68 103.613 345.086 105.184 345.086C106.574 345.086 107.656 345.562 108.43 346.516L108.57 345.32H111.641V357.578C111.641 358.688 111.387 359.652 110.879 360.473C110.379 361.293 109.672 361.918 108.758 362.348C107.844 362.777 106.773 362.992 105.547 362.992C104.617 362.992 103.711 362.805 102.828 362.43C101.945 362.062 101.277 361.586 100.824 361L102.324 358.938C103.168 359.883 104.191 360.355 105.395 360.355C106.293 360.355 106.992 360.113 107.492 359.629C107.992 359.152 108.242 358.473 108.242 357.59V356.91C107.461 357.793 106.434 358.234 105.16 358.234C103.637 358.234 102.402 357.641 101.457 356.453C100.52 355.258 100.051 353.676 100.051 351.707V351.566ZM103.438 351.812C103.438 352.961 103.668 353.863 104.129 354.52C104.59 355.168 105.223 355.492 106.027 355.492C107.059 355.492 107.797 355.105 108.242 354.332V349C107.789 348.227 107.059 347.84 106.051 347.84C105.238 347.84 104.598 348.172 104.129 348.836C103.668 349.5 103.438 350.492 103.438 351.812ZM120.09 358.234C118.23 358.234 116.715 357.664 115.543 356.523C114.379 355.383 113.797 353.863 113.797 351.965V351.637C113.797 350.363 114.043 349.227 114.535 348.227C115.027 347.219 115.723 346.445 116.621 345.906C117.527 345.359 118.559 345.086 119.715 345.086C121.449 345.086 122.812 345.633 123.805 346.727C124.805 347.82 125.305 349.371 125.305 351.379V352.762H117.23C117.34 353.59 117.668 354.254 118.215 354.754C118.77 355.254 119.469 355.504 120.312 355.504C121.617 355.504 122.637 355.031 123.371 354.086L125.035 355.949C124.527 356.668 123.84 357.23 122.973 357.637C122.105 358.035 121.145 358.234 120.09 358.234ZM119.703 347.828C119.031 347.828 118.484 348.055 118.062 348.508C117.648 348.961 117.383 349.609 117.266 350.453H121.977V350.184C121.961 349.434 121.758 348.855 121.367 348.449C120.977 348.035 120.422 347.828 119.703 347.828ZM144.242 353.395L145.906 345.32H149.176L145.941 358H143.105L140.703 350.02L138.301 358H135.477L132.242 345.32H135.512L137.164 353.383L139.484 345.32H141.934L144.242 353.395ZM158.211 358C158.055 357.695 157.941 357.316 157.871 356.863C157.051 357.777 155.984 358.234 154.672 358.234C153.43 358.234 152.398 357.875 151.578 357.156C150.766 356.438 150.359 355.531 150.359 354.438C150.359 353.094 150.855 352.062 151.848 351.344C152.848 350.625 154.289 350.262 156.172 350.254H157.73V349.527C157.73 348.941 157.578 348.473 157.273 348.121C156.977 347.77 156.504 347.594 155.855 347.594C155.285 347.594 154.836 347.73 154.508 348.004C154.188 348.277 154.027 348.652 154.027 349.129H150.641C150.641 348.395 150.867 347.715 151.32 347.09C151.773 346.465 152.414 345.977 153.242 345.625C154.07 345.266 155 345.086 156.031 345.086C157.594 345.086 158.832 345.48 159.746 346.27C160.668 347.051 161.129 348.152 161.129 349.574V355.07C161.137 356.273 161.305 357.184 161.633 357.801V358H158.211ZM155.41 355.645C155.91 355.645 156.371 355.535 156.793 355.316C157.215 355.09 157.527 354.789 157.73 354.414V352.234H156.465C154.77 352.234 153.867 352.82 153.758 353.992L153.746 354.191C153.746 354.613 153.895 354.961 154.191 355.234C154.488 355.508 154.895 355.645 155.41 355.645ZM170.598 354.496C170.598 354.082 170.391 353.758 169.977 353.523C169.57 353.281 168.914 353.066 168.008 352.879C164.992 352.246 163.484 350.965 163.484 349.035C163.484 347.91 163.949 346.973 164.879 346.223C165.816 345.465 167.039 345.086 168.547 345.086C170.156 345.086 171.441 345.465 172.402 346.223C173.371 346.98 173.855 347.965 173.855 349.176H170.469C170.469 348.691 170.312 348.293 170 347.98C169.688 347.66 169.199 347.5 168.535 347.5C167.965 347.5 167.523 347.629 167.211 347.887C166.898 348.145 166.742 348.473 166.742 348.871C166.742 349.246 166.918 349.551 167.27 349.785C167.629 350.012 168.23 350.211 169.074 350.383C169.918 350.547 170.629 350.734 171.207 350.945C172.996 351.602 173.891 352.738 173.891 354.355C173.891 355.512 173.395 356.449 172.402 357.168C171.41 357.879 170.129 358.234 168.559 358.234C167.496 358.234 166.551 358.047 165.723 357.672C164.902 357.289 164.258 356.77 163.789 356.113C163.32 355.449 163.086 354.734 163.086 353.969H166.297C166.328 354.57 166.551 355.031 166.965 355.352C167.379 355.672 167.934 355.832 168.629 355.832C169.277 355.832 169.766 355.711 170.094 355.469C170.43 355.219 170.598 354.895 170.598 354.496ZM185.176 345.32L185.281 346.785C186.188 345.652 187.402 345.086 188.926 345.086C190.27 345.086 191.27 345.48 191.926 346.27C192.582 347.059 192.918 348.238 192.934 349.809V358H189.547V349.891C189.547 349.172 189.391 348.652 189.078 348.332C188.766 348.004 188.246 347.84 187.52 347.84C186.566 347.84 185.852 348.246 185.375 349.059V358H181.988V345.32H185.176ZM194.984 351.543C194.984 350.285 195.227 349.164 195.711 348.18C196.195 347.195 196.891 346.434 197.797 345.895C198.711 345.355 199.77 345.086 200.973 345.086C202.684 345.086 204.078 345.609 205.156 346.656C206.242 347.703 206.848 349.125 206.973 350.922L206.996 351.789C206.996 353.734 206.453 355.297 205.367 356.477C204.281 357.648 202.824 358.234 200.996 358.234C199.168 358.234 197.707 357.648 196.613 356.477C195.527 355.305 194.984 353.711 194.984 351.695V351.543ZM198.371 351.789C198.371 352.992 198.598 353.914 199.051 354.555C199.504 355.188 200.152 355.504 200.996 355.504C201.816 355.504 202.457 355.191 202.918 354.566C203.379 353.934 203.609 352.926 203.609 351.543C203.609 350.363 203.379 349.449 202.918 348.801C202.457 348.152 201.809 347.828 200.973 347.828C200.145 347.828 199.504 348.152 199.051 348.801C198.598 349.441 198.371 350.438 198.371 351.789ZM213.137 342.203V345.32H215.305V347.805H213.137V354.133C213.137 354.602 213.227 354.938 213.406 355.141C213.586 355.344 213.93 355.445 214.438 355.445C214.812 355.445 215.145 355.418 215.434 355.363V357.93C214.77 358.133 214.086 358.234 213.383 358.234C211.008 358.234 209.797 357.035 209.75 354.637V347.805H207.898V345.32H209.75V342.203H213.137ZM224.094 358V347.805H222.207V345.32H224.094V344.242C224.094 342.82 224.5 341.719 225.312 340.938C226.133 340.148 227.277 339.754 228.746 339.754C229.215 339.754 229.789 339.832 230.469 339.988L230.434 342.613C230.152 342.543 229.809 342.508 229.402 342.508C228.129 342.508 227.492 343.105 227.492 344.301V345.32H230.012V347.805H227.492V358H224.094ZM231.242 351.543C231.242 350.285 231.484 349.164 231.969 348.18C232.453 347.195 233.148 346.434 234.055 345.895C234.969 345.355 236.027 345.086 237.23 345.086C238.941 345.086 240.336 345.609 241.414 346.656C242.5 347.703 243.105 349.125 243.23 350.922L243.254 351.789C243.254 353.734 242.711 355.297 241.625 356.477C240.539 357.648 239.082 358.234 237.254 358.234C235.426 358.234 233.965 357.648 232.871 356.477C231.785 355.305 231.242 353.711 231.242 351.695V351.543ZM234.629 351.789C234.629 352.992 234.855 353.914 235.309 354.555C235.762 355.188 236.41 355.504 237.254 355.504C238.074 355.504 238.715 355.191 239.176 354.566C239.637 353.934 239.867 352.926 239.867 351.543C239.867 350.363 239.637 349.449 239.176 348.801C238.715 348.152 238.066 347.828 237.23 347.828C236.402 347.828 235.762 348.152 235.309 348.801C234.855 349.441 234.629 350.438 234.629 351.789ZM252.934 356.711C252.098 357.727 250.941 358.234 249.465 358.234C248.105 358.234 247.066 357.844 246.348 357.062C245.637 356.281 245.273 355.137 245.258 353.629V345.32H248.645V353.512C248.645 354.832 249.246 355.492 250.449 355.492C251.598 355.492 252.387 355.094 252.816 354.297V345.32H256.215V358H253.027L252.934 356.711ZM261.887 345.32L261.992 346.785C262.898 345.652 264.113 345.086 265.637 345.086C266.98 345.086 267.98 345.48 268.637 346.27C269.293 347.059 269.629 348.238 269.645 349.809V358H266.258V349.891C266.258 349.172 266.102 348.652 265.789 348.332C265.477 348.004 264.957 347.84 264.23 347.84C263.277 347.84 262.562 348.246 262.086 349.059V358H258.699V345.32H261.887ZM271.695 351.566C271.695 349.59 272.137 348.016 273.02 346.844C273.91 345.672 275.125 345.086 276.664 345.086C277.898 345.086 278.918 345.547 279.723 346.469V340H283.121V358H280.062L279.898 356.652C279.055 357.707 277.969 358.234 276.641 358.234C275.148 358.234 273.949 357.648 273.043 356.477C272.145 355.297 271.695 353.66 271.695 351.566ZM275.082 351.812C275.082 353 275.289 353.91 275.703 354.543C276.117 355.176 276.719 355.492 277.508 355.492C278.555 355.492 279.293 355.051 279.723 354.168V349.164C279.301 348.281 278.57 347.84 277.531 347.84C275.898 347.84 275.082 349.164 275.082 351.812Z" fill="#3F3434"/>
<g clip-path="url(#clip0)">
<path opacity="0.1" d="M140.218 208.391C210.448 208.391 267.381 203.954 267.381 198.48C267.381 193.007 210.448 188.569 140.218 188.569C69.9874 188.569 13.0544 193.007 13.0544 198.48C13.0544 203.954 69.9874 208.391 140.218 208.391Z" fill="#ED7878"/>
<g opacity="0.1">
<path opacity="0.1" d="M252.846 142.007C252.086 139.691 249.004 138.625 245.964 139.628C245.526 139.771 245.102 139.955 244.698 140.178C244.504 140.124 244.303 140.075 244.1 140.039C244.266 139.373 244.329 138.686 244.288 138C245.337 137.296 246.188 136.333 246.759 135.204C247.33 134.075 247.602 132.817 247.55 131.552C248.595 130.846 249.443 129.882 250.012 128.754C250.581 127.625 250.852 126.368 250.799 125.104C251.853 124.407 252.703 123.441 253.261 122.305C254.728 119.392 254.12 116.118 251.903 114.992C249.686 113.866 246.697 115.317 245.231 118.23C244.65 119.354 244.378 120.614 244.444 121.879C243.398 122.585 242.55 123.548 241.981 124.677C241.412 125.806 241.142 127.063 241.194 128.327C240.149 129.033 239.301 129.996 238.732 131.125C238.163 132.254 237.892 133.511 237.945 134.775C236.897 135.48 236.047 136.443 235.475 137.573C234.904 138.702 234.632 139.96 234.684 141.226C233.63 141.923 232.78 142.889 232.221 144.025C231.946 144.572 231.737 145.151 231.599 145.749C231.231 145.209 230.783 144.73 230.27 144.328C230.212 143.869 230.112 143.417 229.971 142.977C228.972 139.922 226.291 138.06 223.987 138.823C221.683 139.586 220.618 142.676 221.617 145.731C222.026 147.04 222.814 148.198 223.879 149.058C223.938 149.517 224.038 149.969 224.178 150.41C224.759 152.182 225.905 153.551 227.215 154.239C227.099 154.621 227.016 155.013 226.967 155.41C225.731 156.603 224.936 158.182 224.711 159.888C223.474 161.082 222.679 162.662 222.455 164.369C221.843 164.959 221.337 165.651 220.959 166.414C219.49 169.327 220.097 172.604 222.314 173.727C224.532 174.85 227.521 173.406 228.99 170.49C229.377 169.729 229.63 168.907 229.738 168.06C230.973 166.867 231.769 165.288 231.994 163.582C233.23 162.389 234.026 160.808 234.25 159.101C235.477 157.905 236.263 156.326 236.479 154.623C237.72 153.43 238.518 151.847 238.741 150.136C239.122 149.774 239.462 149.371 239.755 148.935C240.978 149.187 242.245 149.107 243.427 148.704C243.865 148.561 244.288 148.377 244.692 148.154C246.016 148.505 247.413 148.454 248.708 148.01C251.739 147.016 253.603 144.325 252.846 142.007Z" fill="#3F3D56"/>
<g opacity="0.1">
<path opacity="0.1" d="M247.481 132.877C247.167 133.187 246.822 133.463 246.452 133.702C246.499 134.56 246.386 135.418 246.119 136.234C246.355 135.908 246.565 135.563 246.748 135.204C247.119 134.474 247.367 133.688 247.481 132.877Z" fill="black"/>
<path opacity="0.1" d="M250.73 126.429C250.416 126.739 250.071 127.015 249.701 127.255C249.748 128.112 249.635 128.97 249.369 129.786C249.605 129.459 249.815 129.114 249.997 128.753C250.367 128.024 250.614 127.239 250.73 126.429Z" fill="black"/>
<path opacity="0.1" d="M243.361 124.029C243.333 123.587 243.35 123.143 243.412 122.705C242.831 123.279 242.347 123.946 241.981 124.678C241.801 125.039 241.649 125.413 241.527 125.798C242.022 125.098 242.644 124.498 243.361 124.029V124.029Z" fill="black"/>
<path opacity="0.1" d="M222.736 163.05C222.998 162.685 223.293 162.345 223.619 162.035C223.67 161.628 223.757 161.226 223.879 160.834C223.619 161.185 223.39 161.558 223.194 161.948C223.013 162.303 222.86 162.672 222.736 163.05V163.05Z" fill="black"/>
<path opacity="0.1" d="M224.992 158.576C225.254 158.21 225.549 157.87 225.875 157.561C225.924 157.164 226.007 156.772 226.123 156.389V156.389C225.875 156.73 225.655 157.091 225.465 157.467C225.28 157.824 225.122 158.195 224.992 158.576V158.576Z" fill="black"/>
<path opacity="0.1" d="M244.228 139.325C243.916 139.635 243.572 139.91 243.202 140.148C243.243 140.833 243.18 141.521 243.014 142.187C243.216 142.222 243.415 142.268 243.612 142.325C244.016 142.103 244.44 141.919 244.878 141.775C247.924 140.772 251.003 141.838 251.76 144.154C251.947 144.736 251.98 145.357 251.855 145.956C252.858 144.773 253.274 143.331 252.843 142.01C252.083 139.694 249.001 138.628 245.961 139.631C245.523 139.774 245.099 139.958 244.695 140.181C244.501 140.127 244.3 140.079 244.097 140.043C244.154 139.802 244.196 139.565 244.228 139.325Z" fill="black"/>
<path opacity="0.1" d="M221.623 165.3C221.363 165.651 221.134 166.023 220.938 166.414C220.756 166.776 220.602 167.152 220.477 167.537C220.744 167.17 221.045 166.828 221.375 166.516C221.421 166.104 221.504 165.697 221.623 165.3V165.3Z" fill="black"/>
<path opacity="0.1" d="M240.096 130.477C240.069 130.035 240.086 129.591 240.147 129.153C239.566 129.727 239.083 130.394 238.717 131.126C238.536 131.487 238.384 131.861 238.262 132.246C238.757 131.546 239.38 130.946 240.096 130.477V130.477Z" fill="black"/>
<path opacity="0.1" d="M235.402 156.774C235.343 157.221 235.243 157.661 235.103 158.089C235.337 157.761 235.546 157.416 235.728 157.056C235.924 156.67 236.087 156.268 236.216 155.855C235.971 156.184 235.698 156.491 235.402 156.774V156.774Z" fill="black"/>
<path opacity="0.1" d="M230.89 165.729C230.831 166.176 230.731 166.617 230.591 167.045C230.827 166.718 231.037 166.372 231.219 166.012C231.414 165.625 231.577 165.224 231.707 164.81C231.461 165.14 231.188 165.447 230.89 165.729V165.729Z" fill="black"/>
<path opacity="0.1" d="M233.146 161.249C233.087 161.695 232.987 162.136 232.846 162.564C233.085 162.242 233.299 161.903 233.487 161.549C233.683 161.163 233.846 160.761 233.974 160.348C233.724 160.671 233.447 160.972 233.146 161.249V161.249Z" fill="black"/>
<path opacity="0.1" d="M237.658 152.296C237.599 152.742 237.499 153.181 237.359 153.608C237.593 153.282 237.802 152.937 237.984 152.578C238.182 152.186 238.346 151.777 238.475 151.356C238.231 151.693 237.958 152.008 237.658 152.296V152.296Z" fill="black"/>
<path opacity="0.1" d="M222.886 140.97C225.196 140.211 227.877 142.07 228.87 145.124C229.01 145.566 229.11 146.019 229.169 146.478C229.682 146.881 230.13 147.36 230.498 147.899C230.636 147.3 230.845 146.721 231.12 146.172C231.225 145.968 231.339 145.773 231.455 145.571C231.116 145.1 230.713 144.677 230.259 144.316C230.2 143.857 230.1 143.405 229.959 142.965C228.96 139.91 226.279 138.048 223.975 138.811C222.659 139.244 221.749 140.436 221.396 141.944C221.801 141.496 222.314 141.161 222.886 140.97V140.97Z" fill="black"/>
<path opacity="0.1" d="M233.598 143.373C233.571 142.932 233.589 142.489 233.651 142.052C233.069 142.625 232.584 143.292 232.218 144.025C232.037 144.384 231.885 144.758 231.763 145.142C232.26 144.443 232.882 143.843 233.598 143.373V143.373Z" fill="black"/>
<path opacity="0.1" d="M236.847 136.922C236.821 136.481 236.839 136.038 236.901 135.601C236.317 136.173 235.833 136.839 235.468 137.571C235.287 137.932 235.135 138.306 235.013 138.691C235.508 137.991 236.13 137.391 236.847 136.922V136.922Z" fill="black"/>
<path opacity="0.1" d="M228.634 170.207C228.575 170.655 228.475 171.097 228.334 171.526C228.826 170.842 229.203 170.082 229.451 169.276C229.206 169.61 228.933 169.922 228.634 170.207V170.207Z" fill="black"/>
</g>
<path opacity="0.1" d="M257.28 112.208C258.334 111.512 259.184 110.546 259.742 109.409C261.211 106.496 260.604 103.219 258.387 102.093C256.17 100.967 253.181 102.417 251.712 105.334C251.13 106.461 250.859 107.724 250.928 108.992C249.882 109.698 249.034 110.661 248.465 111.79C247.896 112.919 247.625 114.176 247.678 115.44C246.623 116.135 245.773 117.102 245.216 118.239C245.036 118.595 244.885 118.966 244.764 119.347C245.545 118.212 246.678 117.367 247.986 116.944C248.135 117.407 248.374 117.835 248.689 118.205C249.004 118.574 249.389 118.877 249.822 119.096C250.254 119.315 250.725 119.445 251.209 119.48C251.692 119.515 252.177 119.453 252.636 119.299C253.078 120.605 253.078 122.02 252.636 123.326C252.87 123.003 253.078 122.661 253.258 122.305C253.839 121.181 254.109 119.921 254.042 118.656C255.089 117.951 255.938 116.988 256.507 115.859C257.076 114.729 257.346 113.472 257.292 112.208H257.28Z" fill="#3F3D56"/>
<path opacity="0.1" d="M292.993 70.8711C293.896 70.4487 294.767 69.964 295.603 69.4205L285.929 62.3268L297.299 68.2042C299.599 66.3701 301.502 64.0841 302.891 61.486C304.28 58.8879 305.126 56.0325 305.378 53.0948L286.055 53.293L305.42 50.0434C305.219 47.1027 304.422 44.2342 303.077 41.614C301.732 38.9938 299.868 36.6772 297.598 34.8066C295.329 32.936 292.703 31.5509 289.88 30.7363C287.058 29.9217 284.1 29.6949 281.187 30.0697C278.274 30.4446 275.469 31.4132 272.943 32.916C270.416 34.4189 268.223 36.4243 266.497 38.809C264.771 41.1937 263.549 43.9075 262.906 46.7835C262.264 49.6595 262.213 52.6371 262.759 55.5334C261.354 56.189 260.024 56.9945 258.791 57.936L268.889 72.0304L256.765 59.6929C254.207 62.2148 252.315 65.3373 251.261 68.7778C250.207 72.2183 250.025 75.8683 250.73 79.3974C247.068 81.1133 243.96 83.8287 241.762 87.2334C239.565 90.6381 238.365 94.5948 238.302 98.6512C238.238 102.708 239.313 106.7 241.403 110.173C243.492 113.645 246.513 116.457 250.12 118.288C253.727 120.119 257.774 120.894 261.799 120.526C265.825 120.157 269.665 118.659 272.882 116.204C276.1 113.748 278.564 110.433 279.993 106.639C281.422 102.844 281.759 98.722 280.965 94.7441C285.348 92.6965 288.917 89.2288 291.099 84.8987C293.281 80.5687 293.948 75.6279 292.993 70.8711Z" fill="#ED7878"/>
<path opacity="0.1" d="M252.636 65.3691C250.447 69.6971 249.778 74.64 250.736 79.3974C247.074 81.1133 243.966 83.8288 241.768 87.2335C239.57 90.6382 238.371 94.5948 238.308 98.6512C238.244 102.708 239.319 106.7 241.408 110.173C243.498 113.645 246.519 116.457 250.126 118.288C253.733 120.119 257.78 120.894 261.805 120.526C265.83 120.157 269.671 118.659 272.888 116.204C276.105 113.748 278.569 110.433 279.999 106.639C281.428 102.844 281.765 98.722 280.971 94.7441C285.199 92.774 253.719 63.2038 252.636 65.3691Z" fill="black"/>
<path opacity="0.1" d="M276.914 34.06C278.68 34.06 280.112 32.6226 280.112 30.8495C280.112 29.0764 278.68 27.639 276.914 27.639C275.147 27.639 273.715 29.0764 273.715 30.8495C273.715 32.6226 275.147 34.06 276.914 34.06Z" fill="#ED7878"/>
<path opacity="0.1" d="M295.596 36.1203C297.363 36.1203 298.795 34.6829 298.795 32.9098C298.795 31.1367 297.363 29.6993 295.596 29.6993C293.83 29.6993 292.398 31.1367 292.398 32.9098C292.398 34.6829 293.83 36.1203 295.596 36.1203Z" fill="#ED7878"/>
<path opacity="0.1" d="M302.802 64.9697C304.568 64.9697 306 63.5323 306 61.7592C306 59.9861 304.568 58.5487 302.802 58.5487C301.035 58.5487 299.603 59.9861 299.603 61.7592C299.603 63.5323 301.035 64.9697 302.802 64.9697Z" fill="#ED7878"/>
<path opacity="0.1" d="M293.077 79.3763C294.844 79.3763 296.276 77.9389 296.276 76.1658C296.276 74.3927 294.844 72.9553 293.077 72.9553C291.311 72.9553 289.879 74.3927 289.879 76.1658C289.879 77.9389 291.311 79.3763 293.077 79.3763Z" fill="#ED7878"/>
<path opacity="0.1" d="M279.792 109.298C281.559 109.298 282.991 107.861 282.991 106.087C282.991 104.314 281.559 102.877 279.792 102.877C278.026 102.877 276.594 104.314 276.594 106.087C276.594 107.861 278.026 109.298 279.792 109.298Z" fill="#ED7878"/>
<path opacity="0.1" d="M279.792 109.298C281.559 109.298 282.991 107.861 282.991 106.087C282.991 104.314 281.559 102.877 279.792 102.877C278.026 102.877 276.594 104.314 276.594 106.087C276.594 107.861 278.026 109.298 279.792 109.298Z" fill="black"/>
<path opacity="0.1" d="M250.254 75.409C252.021 75.409 253.453 73.9716 253.453 72.1985C253.453 70.4254 252.021 68.988 250.254 68.988C248.488 68.988 247.056 70.4254 247.056 72.1985C247.056 73.9716 248.488 75.409 250.254 75.409Z" fill="#ED7878"/>
<path opacity="0.1" d="M250.254 75.409C252.021 75.409 253.453 73.9716 253.453 72.1985C253.453 70.4254 252.021 68.988 250.254 68.988C248.488 68.988 247.056 70.4254 247.056 72.1985C247.056 73.9716 248.488 75.409 250.254 75.409Z" fill="black"/>
<path opacity="0.1" d="M246.843 125.005C244.716 123.927 244.073 120.872 245.315 118.055C245.249 118.17 245.186 118.287 245.126 118.41C243.657 121.323 244.264 124.597 246.481 125.723C248.699 126.849 251.688 125.398 253.154 122.485C253.217 122.365 253.27 122.242 253.324 122.122C251.801 124.798 248.968 126.086 246.843 125.005Z" fill="black"/>
<path opacity="0.1" d="M243.684 131.276C241.56 130.198 240.913 127.143 242.158 124.323C242.092 124.44 242.026 124.558 241.967 124.678C240.497 127.591 241.105 130.867 243.322 131.991C245.539 133.114 248.528 131.669 249.997 128.753C250.057 128.633 250.114 128.513 250.168 128.39C248.642 131.066 245.811 132.354 243.684 131.276Z" fill="black"/>
<path opacity="0.1" d="M240.524 137.544C238.4 136.466 237.753 133.411 238.998 130.594C238.932 130.708 238.867 130.825 238.807 130.948C237.338 133.862 237.948 137.135 240.165 138.261C242.382 139.388 245.368 137.937 246.837 135.024C246.897 134.904 246.954 134.781 247.008 134.661C245.485 137.336 242.652 138.625 240.524 137.544Z" fill="black"/>
<path opacity="0.1" d="M237.377 143.83C235.249 142.751 234.606 139.697 235.848 136.88C235.782 136.994 235.719 137.111 235.656 137.231C234.19 140.145 234.798 143.421 237.015 144.547C239.232 145.674 242.221 144.223 243.687 141.307C243.75 141.187 243.804 141.067 243.858 140.943C242.326 143.604 239.492 144.893 237.377 143.83Z" fill="black"/>
<path opacity="0.1" d="M234.208 150.082C232.081 149.004 231.437 145.95 232.679 143.133C232.613 143.247 232.55 143.364 232.491 143.487C231.021 146.4 231.629 149.674 233.846 150.8C236.063 151.926 239.052 150.476 240.521 147.563C240.581 147.443 240.638 147.319 240.692 147.199C239.172 149.875 236.332 151.164 234.208 150.082Z" fill="black"/>
<path opacity="0.1" d="M231.048 156.353C228.924 155.275 228.278 152.221 229.522 149.404C229.457 149.518 229.391 149.635 229.331 149.755C227.862 152.668 228.469 155.945 230.689 157.071C232.909 158.197 235.881 156.744 237.377 153.831C237.436 153.71 237.493 153.59 237.547 153.467C236.006 156.143 233.188 157.431 231.048 156.353Z" fill="black"/>
<path opacity="0.1" d="M227.889 162.621C225.764 161.543 225.118 158.488 226.363 155.671C226.297 155.789 226.234 155.903 226.171 156.026C224.705 158.939 225.312 162.213 227.53 163.339C229.747 164.465 232.736 163.014 234.202 160.101C234.265 159.981 234.319 159.858 234.372 159.738C232.849 162.414 230.016 163.702 227.889 162.621Z" fill="black"/>
<path opacity="0.1" d="M224.732 168.892C222.605 167.814 221.961 164.759 223.203 161.942C223.137 162.056 223.075 162.174 223.015 162.294C221.546 165.207 222.153 168.483 224.37 169.61C226.587 170.736 229.576 169.285 231.045 166.369C231.105 166.249 231.159 166.129 231.213 166.006C229.69 168.682 226.857 169.958 224.732 168.892Z" fill="black"/>
<path opacity="0.1" d="M222.655 173.012C220.531 171.931 219.885 168.88 221.13 166.06C221.064 166.177 220.998 166.294 220.938 166.414C219.469 169.327 220.076 172.604 222.293 173.727C224.511 174.85 227.5 173.406 228.969 170.49C229.029 170.37 229.085 170.249 229.139 170.126C227.613 172.802 224.78 174.091 222.655 173.012Z" fill="black"/>
<path opacity="0.1" d="M279.741 145.109C280.071 144.16 280.272 143.171 280.34 142.169C280.56 142.168 280.777 142.122 280.978 142.034C281.179 141.945 281.36 141.816 281.509 141.654C281.659 141.492 281.773 141.301 281.845 141.092C281.917 140.884 281.946 140.663 281.929 140.443C281.913 140.223 281.851 140.009 281.748 139.814C281.645 139.619 281.503 139.448 281.331 139.31C281.159 139.173 280.961 139.073 280.749 139.016C280.537 138.959 280.315 138.946 280.097 138.979C279.742 137.354 279.03 135.828 278.013 134.513C276.997 133.199 275.701 132.127 274.221 131.378C274.412 130.998 274.445 130.557 274.313 130.153C274.18 129.749 273.893 129.414 273.515 129.222C273.136 129.03 272.697 128.997 272.294 129.129C271.892 129.262 271.558 129.55 271.367 129.93C271.297 130.065 271.249 130.21 271.223 130.36C269.467 130.032 267.659 130.129 265.949 130.643C264.238 131.158 262.674 132.075 261.388 133.318C260.417 133.16 259.429 133.131 258.45 133.231L257.154 139.15L257.076 133.444C255.589 133.771 254.184 134.4 252.948 135.29C251.711 136.181 250.668 137.315 249.882 138.624C249.097 139.933 248.586 141.389 248.38 142.903C248.174 144.417 248.278 145.957 248.686 147.43C249.093 148.902 249.796 150.275 250.75 151.466C251.704 152.657 252.89 153.639 254.235 154.354C255.581 155.069 257.057 155.501 258.575 155.624C260.092 155.746 261.618 155.557 263.061 155.068C263.215 155.347 263.449 155.573 263.734 155.716C264.027 155.866 264.359 155.921 264.684 155.874C265.009 155.827 265.312 155.681 265.552 155.455C265.791 155.229 265.955 154.935 266.022 154.612C266.089 154.289 266.054 153.953 265.924 153.65C266.434 153.298 266.915 152.905 267.36 152.473C269.696 152.854 272.092 152.483 274.205 151.413C276.318 150.344 278.039 148.63 279.122 146.517L273.093 145.499L279.741 145.109Z" fill="#ED7878"/>
<g opacity="0.1">
<path opacity="0.1" d="M270.427 147.983C268.201 145.034 266.837 141.541 265.266 138.189C264.635 136.814 263.929 135.474 263.15 134.177L261.972 132.799C261.774 132.967 261.577 133.141 261.373 133.324C260.402 133.166 259.414 133.137 258.435 133.237L257.139 139.157L257.062 133.45C255.574 133.777 254.17 134.406 252.933 135.296C251.696 136.187 250.653 137.321 249.867 138.63C249.082 139.939 248.571 141.395 248.365 142.909C248.159 144.423 248.263 145.963 248.671 147.436C249.078 148.908 249.781 150.281 250.735 151.472C251.689 152.663 252.875 153.645 254.22 154.36C255.566 155.075 257.042 155.507 258.56 155.63C260.077 155.753 261.604 155.563 263.046 155.074C263.2 155.353 263.435 155.579 263.719 155.723C264.012 155.872 264.344 155.927 264.669 155.88C264.994 155.833 265.297 155.687 265.537 155.461C265.776 155.235 265.94 154.941 266.007 154.618C266.074 154.295 266.039 153.959 265.909 153.656C266.419 153.304 266.9 152.911 267.345 152.479C269.632 152.851 271.978 152.502 274.06 151.482C272.67 150.518 271.443 149.337 270.427 147.983V147.983Z" fill="black"/>
</g>
<path opacity="0.1" d="M231.006 135.309C231.13 135.064 231.189 134.792 231.177 134.518C231.165 134.244 231.084 133.977 230.941 133.744C230.797 133.51 230.596 133.317 230.357 133.184C230.119 133.051 229.85 132.981 229.576 132.982C229.123 130.568 227.893 128.371 226.075 126.726C226.368 125.579 226.479 124.393 226.405 123.212L220.525 122.206L226.234 121.846C226.132 121.308 225.991 120.778 225.812 120.26C226.034 120.106 226.215 119.9 226.339 119.659C226.483 119.372 226.538 119.048 226.496 118.73C226.455 118.411 226.32 118.112 226.107 117.871C225.895 117.631 225.616 117.46 225.305 117.38C224.995 117.3 224.668 117.316 224.367 117.425C222.855 115.28 220.642 113.735 218.113 113.058C215.585 112.381 212.899 112.615 210.524 113.718C208.149 114.822 206.234 116.726 205.112 119.1C203.99 121.473 203.732 124.166 204.383 126.711C204.037 126.858 203.754 127.124 203.587 127.462C203.44 127.753 203.385 128.081 203.429 128.404C203.474 128.727 203.615 129.029 203.834 129.27C204.053 129.51 204.341 129.678 204.657 129.75C204.974 129.823 205.305 129.796 205.607 129.675C206.181 130.643 206.896 131.518 207.728 132.273C207.122 134.645 207.305 137.151 208.249 139.409L216.133 137.355L209.101 141.067C210.345 143.049 212.174 144.593 214.334 145.481C216.494 146.369 218.877 146.557 221.149 146.019C223.421 145.481 225.468 144.243 227.005 142.48C228.542 140.716 229.491 138.515 229.72 136.183C229.991 136.16 230.251 136.067 230.476 135.914C230.701 135.761 230.884 135.553 231.006 135.309V135.309Z" fill="#ED7878"/>
<path opacity="0.1" d="M231.006 135.309C231.13 135.064 231.188 134.792 231.177 134.518C231.165 134.244 231.084 133.977 230.94 133.744C230.797 133.51 230.596 133.317 230.357 133.184C230.118 133.051 229.849 132.981 229.576 132.982C229.123 130.568 227.893 128.371 226.075 126.726C226.123 126.537 226.165 126.351 226.201 126.161C225.992 126.313 225.799 126.485 225.624 126.675C224.561 127.843 224.017 129.414 222.967 130.594C221.728 131.988 219.873 132.715 218.021 132.91C216.169 133.105 214.305 132.82 212.476 132.462C210.962 132.162 209.427 131.814 207.893 131.961C207.743 131.961 207.593 131.994 207.456 132.018C207.545 132.105 207.635 132.192 207.728 132.276C207.122 134.648 207.305 137.154 208.249 139.412L216.133 137.355L209.101 141.067C210.345 143.05 212.174 144.593 214.334 145.481C216.494 146.369 218.877 146.557 221.149 146.019C223.42 145.481 225.468 144.243 227.005 142.48C228.541 140.716 229.491 138.515 229.72 136.183C229.991 136.16 230.251 136.067 230.476 135.914C230.701 135.761 230.884 135.553 231.006 135.309V135.309Z" fill="black"/>
</g>
<g opacity="0.1">
<path opacity="0.1" d="M26.7762 153.539C27.1592 152.371 28.7121 151.833 30.244 152.338C30.4644 152.411 30.6777 152.503 30.8814 152.614C30.9801 152.587 31.0818 152.563 31.1806 152.545C31.0965 152.21 31.0642 151.863 31.0848 151.518C30.5589 151.161 30.1326 150.675 29.8462 150.107C29.5597 149.538 29.4227 148.905 29.4482 148.269C28.9177 147.918 28.49 147.432 28.2094 146.86C27.917 146.294 27.7797 145.659 27.8115 145.022C27.2814 144.67 26.8539 144.183 26.5728 143.61C25.8367 142.145 26.1359 140.496 27.2579 139.925C28.38 139.355 29.882 140.091 30.621 141.556C30.9129 142.124 31.0492 142.759 31.016 143.397C31.5433 143.752 31.9708 144.237 32.2574 144.806C32.544 145.374 32.6801 146.007 32.6527 146.644C33.1798 147 33.6071 147.485 33.8936 148.054C34.1802 148.623 34.3165 149.256 34.2893 149.893C34.8166 150.248 35.2441 150.733 35.5307 151.302C35.8174 151.87 35.9535 152.503 35.926 153.14C36.4572 153.492 36.8858 153.979 37.1677 154.551C37.3023 154.828 37.4027 155.121 37.4669 155.422C37.6512 155.15 37.8763 154.908 38.1342 154.705C38.1649 154.473 38.217 154.245 38.2897 154.023C38.7954 152.485 40.1448 151.548 41.3088 151.921C42.4727 152.293 43.0053 153.864 42.5056 155.401C42.2991 156.062 41.9024 156.646 41.3656 157.08C41.3345 157.311 41.2824 157.538 41.21 157.759C40.9644 158.574 40.4174 159.264 39.6811 159.687C39.7388 159.884 39.7808 160.084 39.8067 160.288C40.1156 160.585 40.3717 160.934 40.5637 161.318C40.7595 161.701 40.8871 162.116 40.9407 162.543C41.2508 162.84 41.5078 163.189 41.7007 163.573C41.8961 163.957 42.0237 164.371 42.0777 164.799C42.3885 165.096 42.6456 165.446 42.8377 165.832C43.5768 167.297 43.2716 168.949 42.1555 169.514C41.0395 170.078 39.5315 169.352 38.7924 167.883C38.5976 167.499 38.47 167.085 38.4154 166.658C37.792 166.057 37.391 165.262 37.2784 164.402C36.655 163.802 36.254 163.006 36.1414 162.147C35.8316 161.849 35.5746 161.501 35.3814 161.117C35.1879 160.732 35.0605 160.318 35.0044 159.891C34.6955 159.594 34.4395 159.245 34.2474 158.861C34.0517 158.478 33.9241 158.063 33.8704 157.636C33.6778 157.456 33.5062 157.254 33.3588 157.035C32.7432 157.161 32.1052 157.122 31.5097 156.921C31.2885 156.847 31.0743 156.753 30.8694 156.642C30.2039 156.819 29.501 156.794 28.8497 156.57C27.3328 156.062 26.3962 154.708 26.7762 153.539Z" fill="#3F3D56"/>
<g opacity="0.1">
<path opacity="0.1" d="M29.478 148.935C29.6367 149.092 29.8111 149.232 29.9987 149.353C29.9733 149.784 30.0302 150.216 30.1662 150.626C30.046 150.462 29.9399 150.289 29.849 150.107C29.6619 149.739 29.5365 149.344 29.478 148.935V148.935Z" fill="black"/>
<path opacity="0.1" d="M27.8413 145.692C28.0008 145.847 28.1752 145.986 28.3619 146.106C28.3368 146.538 28.3937 146.972 28.5295 147.383C28.167 146.883 27.9309 146.303 27.8413 145.692V145.692Z" fill="black"/>
<path opacity="0.1" d="M31.5603 144.481C31.5745 144.259 31.5665 144.036 31.5364 143.815C31.8289 144.105 32.0724 144.44 32.2575 144.809C32.3478 144.991 32.4238 145.18 32.4849 145.373C32.2355 145.02 31.9218 144.717 31.5603 144.481V144.481Z" fill="black"/>
<path opacity="0.1" d="M41.9431 164.141C41.8123 163.957 41.664 163.786 41.5003 163.63C41.473 163.427 41.429 163.226 41.3687 163.03C41.4985 163.206 41.6136 163.393 41.7127 163.588C41.8035 163.766 41.8805 163.951 41.9431 164.141V164.141Z" fill="black"/>
<path opacity="0.1" d="M40.797 161.885C40.6662 161.701 40.5179 161.53 40.3542 161.375C40.3298 161.171 40.2877 160.97 40.2285 160.774C40.475 161.109 40.665 161.483 40.791 161.879L40.797 161.885Z" fill="black"/>
<path opacity="0.1" d="M31.1176 152.191C31.2747 152.346 31.4483 152.484 31.6353 152.602C31.6129 152.948 31.6452 153.294 31.731 153.629C31.6301 153.647 31.5303 153.67 31.4318 153.698C31.2268 153.588 31.0126 153.495 30.7915 153.422C29.2595 152.918 27.7067 153.455 27.3267 154.623C27.2314 154.914 27.2139 155.225 27.2758 155.524C27.0296 155.265 26.8545 154.945 26.7675 154.597C26.6805 154.25 26.6845 153.885 26.7791 153.539C27.1621 152.371 28.715 151.833 30.2469 152.338C30.4673 152.41 30.6806 152.503 30.8842 152.614C30.983 152.587 31.0847 152.563 31.1834 152.545C31.1547 152.428 31.1327 152.31 31.1176 152.191V152.191Z" fill="black"/>
<path opacity="0.1" d="M42.5056 165.273C42.6361 165.45 42.7513 165.638 42.8497 165.835C42.9411 166.017 43.0181 166.205 43.0801 166.399C42.9493 166.214 42.801 166.042 42.6373 165.886C42.6106 165.678 42.5666 165.473 42.5056 165.273V165.273Z" fill="black"/>
<path opacity="0.1" d="M33.197 147.734C33.2113 147.511 33.2033 147.288 33.1731 147.067C33.4663 147.357 33.7099 147.692 33.8942 148.061C33.9845 148.242 34.0606 148.43 34.1216 148.623C33.8722 148.271 33.5584 147.969 33.197 147.734V147.734Z" fill="black"/>
<path opacity="0.1" d="M35.5639 160.978C35.5919 161.203 35.6409 161.424 35.7105 161.639C35.4611 161.296 35.271 160.913 35.1479 160.507C35.2723 160.676 35.4115 160.834 35.5639 160.978V160.978Z" fill="black"/>
<path opacity="0.1" d="M37.8348 165.489C37.865 165.714 37.915 165.935 37.9844 166.15C37.8642 165.986 37.7581 165.812 37.6672 165.63C37.5688 165.437 37.4867 165.237 37.4219 165.03C37.5472 165.194 37.6853 165.347 37.8348 165.489V165.489Z" fill="black"/>
<path opacity="0.1" d="M36.7008 163.234C36.7288 163.458 36.7779 163.679 36.8474 163.895C36.7283 163.73 36.6222 163.556 36.5303 163.375C36.4315 163.182 36.3494 162.981 36.2849 162.774C36.4098 162.939 36.549 163.093 36.7008 163.234V163.234Z" fill="black"/>
<path opacity="0.1" d="M34.4268 158.72C34.4545 158.945 34.5036 159.168 34.5734 159.384C34.46 159.219 34.3599 159.045 34.2742 158.864C34.1739 158.672 34.0908 158.471 34.0259 158.263C34.1454 158.428 34.2796 158.58 34.4268 158.72V158.72Z" fill="black"/>
<path opacity="0.1" d="M41.8682 153.017C40.7043 152.632 39.3549 153.569 38.8522 155.119C38.7795 155.341 38.7274 155.569 38.6966 155.801C38.4378 156.003 38.2118 156.244 38.0264 156.516C37.957 156.214 37.8515 155.921 37.7122 155.645C37.6614 155.542 37.6045 155.443 37.5447 155.344C37.7145 155.108 37.9159 154.895 38.1431 154.714C38.1738 154.482 38.2259 154.254 38.2987 154.032C38.8043 152.494 40.1538 151.557 41.3177 151.93C41.6515 152.058 41.9464 152.271 42.1739 152.548C42.4015 152.825 42.5538 153.156 42.6162 153.509C42.4129 153.284 42.1554 153.114 41.8682 153.017V153.017Z" fill="black"/>
<path opacity="0.1" d="M36.4705 154.227C36.4847 154.005 36.4767 153.781 36.4465 153.56C36.7397 153.85 36.9834 154.185 37.1676 154.554C37.2579 154.736 37.334 154.925 37.395 155.119C37.1465 154.765 36.8326 154.462 36.4705 154.227V154.227Z" fill="black"/>
<path opacity="0.1" d="M34.8338 150.978C34.8479 150.755 34.8399 150.532 34.8098 150.311C35.1016 150.601 35.3451 150.937 35.5309 151.305C35.6212 151.487 35.6973 151.676 35.7583 151.869C35.509 151.516 35.1953 151.214 34.8338 150.978V150.978Z" fill="black"/>
<path opacity="0.1" d="M38.9717 167.745C39.0005 167.97 39.0506 168.193 39.1213 168.409C39.0017 168.243 38.8957 168.068 38.8042 167.886C38.7058 167.693 38.6237 167.492 38.5588 167.285C38.6841 167.449 38.8222 167.603 38.9717 167.745Z" fill="black"/>
</g>
<path opacity="0.1" d="M24.5409 138.526C24.0105 138.175 23.5828 137.689 23.3022 137.117C22.5632 135.649 22.8684 134 23.9844 133.432C25.1005 132.865 26.6085 133.594 27.3475 135.063C27.6398 135.63 27.7762 136.264 27.7425 136.901C28.2696 137.257 28.6969 137.742 28.9835 138.311C29.27 138.88 29.4063 139.514 29.3791 140.151C29.91 140.502 30.3385 140.988 30.6209 141.559C30.7106 141.739 30.7867 141.926 30.8482 142.118C30.4519 141.55 29.8813 141.128 29.2236 140.916C29.1503 141.151 29.0312 141.369 28.8732 141.556C28.7152 141.744 28.5214 141.899 28.3033 142.011C28.0852 142.122 27.847 142.189 27.6028 142.208C27.3585 142.226 27.1131 142.196 26.8808 142.118C26.6589 142.775 26.6589 143.488 26.8808 144.145C26.7683 143.982 26.6683 143.81 26.5815 143.631C26.2891 143.065 26.1518 142.431 26.1836 141.793C25.6571 141.437 25.2303 140.951 24.9438 140.383C24.6573 139.814 24.5207 139.181 24.5469 138.544L24.5409 138.526Z" fill="#3F3D56"/>
<path opacity="0.1" d="M6.55258 117.701C6.09871 117.488 5.65985 117.244 5.23906 116.971L10.1102 113.398L4.38332 116.356C3.22543 115.432 2.26758 114.28 1.56841 112.971C0.869237 111.663 0.443443 110.225 0.317087 108.745L10.0533 108.848L0.296143 107.208C0.380156 105.714 0.769794 104.253 1.44078 102.917C2.11177 101.58 3.04973 100.397 4.19622 99.4406C5.34272 98.484 6.67318 97.7747 8.10472 97.3567C9.53627 96.9388 11.0382 96.8213 12.517 97.0115C13.9958 97.2016 15.4197 97.6954 16.7 98.4621C17.9804 99.2287 19.0897 100.252 19.9589 101.468C20.8281 102.683 21.4386 104.066 21.7523 105.529C22.066 106.992 22.0762 108.504 21.7823 109.971C22.489 110.299 23.159 110.702 23.781 111.172L18.6944 118.272L24.8013 112.061C26.0899 113.332 27.0427 114.905 27.5735 116.638C28.1043 118.371 28.1963 120.209 27.8412 121.987C29.6886 122.851 31.2565 124.219 32.3657 125.935C33.4748 127.651 34.0805 129.645 34.1134 131.691C34.1463 133.736 33.6051 135.749 32.5517 137.5C31.4983 139.251 29.9752 140.669 28.1566 141.593C26.338 142.516 24.2973 142.906 22.2679 142.72C20.2385 142.534 18.3022 141.778 16.6805 140.539C15.0589 139.301 13.8173 137.629 13.0977 135.715C12.3781 133.801 12.2097 131.723 12.6115 129.717C10.4067 128.686 8.61081 126.941 7.51209 124.763C6.41338 122.584 6.07547 120.098 6.55258 117.704V117.701Z" fill="#ED7878"/>
<path opacity="0.1" d="M26.8839 114.932C27.9874 117.112 28.3248 119.602 27.8414 121.999C29.6887 122.863 31.2566 124.231 32.3658 125.947C33.475 127.663 34.0806 129.657 34.1135 131.703C34.1464 133.748 33.6053 135.761 32.5519 137.512C31.4985 139.263 29.9754 140.682 28.1568 141.605C26.3382 142.528 24.2975 142.919 22.268 142.732C20.2386 142.546 18.3023 141.79 16.6806 140.551C15.059 139.313 13.8174 137.641 13.0978 135.727C12.3783 133.813 12.2098 131.735 12.6117 129.729C10.4783 128.735 26.3363 113.842 26.8839 114.932Z" fill="black"/>
<path opacity="0.1" d="M14.6523 99.159C15.543 99.159 16.265 98.4343 16.265 97.5403C16.265 96.6462 15.543 95.9215 14.6523 95.9215C13.7616 95.9215 13.0396 96.6462 13.0396 97.5403C13.0396 98.4343 13.7616 99.159 14.6523 99.159Z" fill="#ED7878"/>
<path opacity="0.1" d="M5.2392 100.198C6.12988 100.198 6.85193 99.4735 6.85193 98.5794C6.85193 97.6854 6.12988 96.9607 5.2392 96.9607C4.34851 96.9607 3.62646 97.6854 3.62646 98.5794C3.62646 99.4735 4.34851 100.198 5.2392 100.198Z" fill="#ED7878"/>
<path opacity="0.1" d="M1.61273 114.731C2.50342 114.731 3.22546 114.006 3.22546 113.112C3.22546 112.218 2.50342 111.493 1.61273 111.493C0.722044 111.493 0 112.218 0 113.112C0 114.006 0.722044 114.731 1.61273 114.731Z" fill="#ED7878"/>
<path opacity="0.1" d="M6.51068 121.99C7.40137 121.99 8.12341 121.265 8.12341 120.371C8.12341 119.477 7.40137 118.752 6.51068 118.752C5.61999 118.752 4.89795 119.477 4.89795 120.371C4.89795 121.265 5.61999 121.99 6.51068 121.99Z" fill="#ED7878"/>
<path opacity="0.1" d="M13.2011 137.063C14.0918 137.063 14.8138 136.339 14.8138 135.445C14.8138 134.551 14.0918 133.826 13.2011 133.826C12.3104 133.826 11.5884 134.551 11.5884 135.445C11.5884 136.339 12.3104 137.063 13.2011 137.063Z" fill="#ED7878"/>
<path opacity="0.1" d="M13.2011 137.063C14.0918 137.063 14.8138 136.339 14.8138 135.445C14.8138 134.551 14.0918 133.826 13.2011 133.826C12.3104 133.826 11.5884 134.551 11.5884 135.445C11.5884 136.339 12.3104 137.063 13.2011 137.063Z" fill="black"/>
<path opacity="0.1" d="M28.0807 119.99C28.9714 119.99 29.6935 119.265 29.6935 118.371C29.6935 117.477 28.9714 116.752 28.0807 116.752C27.1901 116.752 26.468 117.477 26.468 118.371C26.468 119.265 27.1901 119.99 28.0807 119.99Z" fill="#ED7878"/>
<path opacity="0.1" d="M28.0807 119.99C28.9714 119.99 29.6935 119.265 29.6935 118.371C29.6935 117.477 28.9714 116.752 28.0807 116.752C27.1901 116.752 26.468 117.477 26.468 118.371C26.468 119.265 27.1901 119.99 28.0807 119.99Z" fill="black"/>
<path opacity="0.1" d="M29.801 144.974C30.8722 144.43 31.1954 142.893 30.57 141.472C30.6029 141.532 30.6358 141.589 30.6658 141.649C31.4048 143.118 31.0996 144.767 29.9806 145.334C28.8615 145.902 27.3595 145.172 26.6205 143.703C26.5905 143.643 26.5606 143.583 26.5337 143.52C27.3027 144.869 28.7299 145.517 29.801 144.974Z" fill="black"/>
<path opacity="0.1" d="M31.3899 148.133C32.461 147.59 32.7872 146.049 32.1618 144.632C32.1947 144.689 32.2276 144.749 32.2576 144.809C32.9966 146.277 32.6914 147.926 31.5724 148.494C30.4533 149.061 28.9513 148.332 28.2123 146.863C28.1793 146.803 28.1524 146.74 28.1255 146.68C28.8945 148.034 30.3247 148.677 31.3899 148.133Z" fill="black"/>
<path opacity="0.1" d="M32.9816 151.29C34.0528 150.746 34.3789 149.209 33.7506 147.788C33.7865 147.848 33.8164 147.905 33.8494 147.968C34.5884 149.434 34.2802 151.086 33.1642 151.65C32.0481 152.215 30.5431 151.488 29.8041 150.019C29.7711 149.959 29.7442 149.899 29.7173 149.836C30.4833 151.185 31.9105 151.833 32.9816 151.29Z" fill="black"/>
<path opacity="0.1" d="M34.5734 154.449C35.6446 153.906 35.9707 152.368 35.3424 150.947C35.3753 151.004 35.4082 151.065 35.4382 151.125C36.1802 152.593 35.872 154.242 34.756 154.81C33.6399 155.377 32.1319 154.647 31.3929 153.179C31.3629 153.119 31.336 153.056 31.3091 152.996C32.0751 154.341 33.5023 154.993 34.5734 154.449Z" fill="black"/>
<path opacity="0.1" d="M36.1653 157.606C37.2365 157.062 37.5596 155.524 36.9343 154.107C36.9672 154.164 37.0001 154.224 37.03 154.284C37.769 155.753 37.4639 157.401 36.3478 157.969C35.2318 158.537 33.7238 157.804 32.9847 156.338C32.9548 156.275 32.9279 156.215 32.8979 156.155C33.6669 157.5 35.0941 158.149 36.1653 157.606Z" fill="black"/>
<path opacity="0.1" d="M37.7571 160.765C38.8283 160.222 39.1514 158.684 38.5261 157.263C38.559 157.323 38.5919 157.38 38.6218 157.441C39.3608 158.909 39.0557 160.558 37.9396 161.126C36.8236 161.693 35.3156 160.963 34.5765 159.495C34.5466 159.435 34.5167 159.375 34.4897 159.312C35.2587 160.648 36.6859 161.309 37.7571 160.765Z" fill="black"/>
<path opacity="0.1" d="M39.3489 163.925C40.4171 163.381 40.7432 161.84 40.1178 160.423C40.1508 160.48 40.1837 160.54 40.2136 160.6C40.9526 162.069 40.6474 163.717 39.5284 164.285C38.4094 164.853 36.9074 164.12 36.1683 162.654C36.1384 162.591 36.1085 162.531 36.0815 162.471C36.8505 163.816 38.2777 164.468 39.3489 163.925Z" fill="black"/>
<path opacity="0.1" d="M40.9377 167.081C42.0089 166.537 42.335 165 41.7067 163.579C41.7426 163.639 41.7725 163.696 41.8054 163.759C42.5444 165.225 42.2363 166.877 41.1202 167.441C40.0042 168.006 38.4992 167.279 37.7601 165.811C37.7272 165.751 37.7003 165.691 37.6733 165.627C38.4423 166.976 39.8665 167.625 40.9377 167.081Z" fill="black"/>
<path opacity="0.1" d="M41.9939 169.156C43.0651 168.613 43.3882 167.075 42.7629 165.654C42.7958 165.714 42.8287 165.772 42.8586 165.835C43.5977 167.3 43.2925 168.952 42.1764 169.517C41.0604 170.081 39.5524 169.354 38.8133 167.886C38.7834 167.826 38.7535 167.766 38.7266 167.703C39.4866 169.057 40.9138 169.7 41.9939 169.156Z" fill="black"/>
<path opacity="0.1" d="M13.2279 155.101C13.0618 154.623 12.9611 154.125 12.9287 153.62C12.8181 153.62 12.7087 153.597 12.6075 153.552C12.5062 153.507 12.4152 153.442 12.3401 153.361C12.2651 153.279 12.2076 153.183 12.1713 153.078C12.135 152.973 12.1206 152.862 12.1291 152.751C12.1375 152.64 12.1686 152.532 12.2204 152.434C12.2723 152.336 12.3437 152.25 12.4302 152.181C12.5168 152.111 12.6166 152.061 12.7235 152.032C12.8304 152.003 12.942 151.997 13.0514 152.014C13.2309 151.195 13.5896 150.427 14.1014 149.765C14.6132 149.102 15.2653 148.563 16.0106 148.184C15.9142 147.993 15.8975 147.771 15.9643 147.567C16.0311 147.363 16.1758 147.194 16.3666 147.097C16.5575 147.001 16.7788 146.984 16.982 147.051C17.1851 147.118 17.3534 147.263 17.4498 147.455C17.4848 147.523 17.509 147.596 17.5216 147.671C18.4069 147.508 19.3183 147.559 20.18 147.82C21.0417 148.081 21.829 148.545 22.4765 149.173C22.971 149.091 23.4742 149.077 23.9725 149.131L24.6248 152.11L24.6397 149.236C25.3816 149.408 26.0811 149.729 26.696 150.18C27.3109 150.63 27.8285 151.202 28.2176 151.859C28.6066 152.515 28.8592 153.245 28.9599 154.002C29.0607 154.76 29.0076 155.53 28.8038 156.266C28.6 157.003 28.2498 157.69 27.7742 158.287C27.2986 158.884 26.7076 159.378 26.0367 159.739C25.3658 160.101 24.6289 160.322 23.8705 160.39C23.112 160.458 22.3478 160.371 21.6237 160.135C21.545 160.274 21.4275 160.388 21.2856 160.462C21.1377 160.537 20.9705 160.564 20.8065 160.541C20.6425 160.517 20.4898 160.443 20.369 160.329C20.2481 160.216 20.1651 160.067 20.131 159.905C20.0969 159.742 20.1135 159.573 20.1786 159.42C19.922 159.24 19.6808 159.039 19.4575 158.819C18.2805 159.01 17.0735 158.823 16.0092 158.283C14.945 157.744 14.0782 156.88 13.5331 155.816L16.5701 155.302L13.2279 155.101Z" fill="#ED7878"/>
<g opacity="0.1">
<path opacity="0.1" d="M17.9196 156.549C19.0416 155.047 19.7298 153.305 20.5197 151.617C20.836 150.923 21.1917 150.247 21.5849 149.593L22.1833 148.899C22.285 148.986 22.3838 149.073 22.4825 149.163C22.9771 149.082 23.4803 149.068 23.9786 149.121L24.6308 152.101L24.6398 149.236C25.3817 149.408 26.0812 149.729 26.696 150.18C27.3109 150.63 27.8285 151.201 28.2176 151.858C28.6067 152.515 28.8592 153.245 28.96 154.002C29.0607 154.76 29.0076 155.53 28.8038 156.266C28.6001 157.003 28.2498 157.69 27.7743 158.287C27.2987 158.884 26.7077 159.378 26.0367 159.739C25.3658 160.101 24.629 160.322 23.8705 160.39C23.1121 160.458 22.3478 160.371 21.6238 160.134C21.545 160.274 21.4276 160.388 21.2857 160.462C21.1378 160.537 20.9705 160.564 20.8066 160.54C20.6426 160.517 20.4899 160.443 20.369 160.329C20.2482 160.216 20.1651 160.067 20.1311 159.905C20.097 159.742 20.1136 159.573 20.1786 159.42C19.9221 159.24 19.6809 159.039 19.4575 158.819C18.305 159.004 17.1235 158.829 16.0735 158.317C16.7797 157.831 17.4031 157.234 17.9196 156.549Z" fill="black"/>
</g>
<path opacity="0.1" d="M37.7781 150.164C37.7302 150.069 37.7015 149.966 37.6935 149.86C37.6855 149.754 37.6984 149.648 37.7315 149.547C37.7646 149.446 37.8172 149.353 37.8863 149.273C37.9554 149.193 38.0396 149.127 38.1341 149.079C38.2471 149.021 38.3723 148.991 38.4992 148.992C38.7274 147.776 39.3464 146.668 40.2615 145.839C40.1135 145.262 40.058 144.665 40.0969 144.07L43.0561 143.571L40.1807 143.388C40.2328 143.117 40.3048 142.85 40.3961 142.589C40.2831 142.514 40.1914 142.41 40.1298 142.289C40.0579 142.144 40.0307 141.981 40.0517 141.821C40.0727 141.661 40.141 141.51 40.2478 141.389C40.3546 141.268 40.495 141.182 40.651 141.142C40.807 141.101 40.9714 141.109 41.1232 141.163C41.6517 140.408 42.3578 139.796 43.1788 139.382C44.1457 138.889 45.2337 138.687 46.3122 138.8C47.3908 138.912 48.4141 139.334 49.2595 140.016C50.105 140.697 50.7366 141.609 51.0788 142.642C51.4209 143.675 51.4591 144.785 51.1886 145.839C51.3292 145.899 51.4498 145.999 51.5361 146.126C51.6224 146.252 51.6709 146.401 51.6759 146.555C51.681 146.708 51.6423 146.86 51.5644 146.992C51.4866 147.125 51.3728 147.232 51.2365 147.301C51.1342 147.353 51.0221 147.383 50.9076 147.388C50.793 147.393 50.6787 147.374 50.5722 147.331C50.2834 147.817 49.9233 148.257 49.504 148.635C49.8107 149.833 49.7193 151.098 49.2437 152.239L45.2852 151.194L48.8248 153.065C48.2934 153.916 47.546 154.61 46.6593 155.076C45.7725 155.541 44.7784 155.762 43.7787 155.715C42.779 155.668 41.8097 155.355 40.9703 154.808C40.1309 154.261 39.4515 153.5 39.0018 152.602C38.6887 151.978 38.492 151.301 38.4214 150.605C38.2855 150.593 38.1551 150.546 38.0425 150.468C37.9298 150.391 37.8388 150.286 37.7781 150.164V150.164Z" fill="#ED7878"/>
<path opacity="0.1" d="M37.7781 150.164C37.7302 150.069 37.7015 149.966 37.6935 149.86C37.6855 149.754 37.6984 149.648 37.7315 149.547C37.7646 149.446 37.8172 149.353 37.8863 149.273C37.9554 149.193 38.0396 149.127 38.1341 149.079C38.2471 149.021 38.3723 148.991 38.4992 148.992C38.7274 147.776 39.3464 146.668 40.2615 145.839C40.2376 145.746 40.2166 145.65 40.1987 145.557C40.306 145.633 40.4061 145.72 40.4979 145.815C41.0335 146.415 41.3087 147.193 41.8353 147.788C42.4952 148.471 43.3823 148.887 44.3277 148.956C45.2643 149.021 46.2052 148.945 47.1193 148.731C47.8733 148.536 48.6511 148.45 49.4292 148.476L49.6506 148.506L49.513 148.635C49.8197 149.833 49.7283 151.098 49.2527 152.239L45.2852 151.194L48.8248 153.065C48.2934 153.916 47.546 154.61 46.6593 155.076C45.7725 155.541 44.7784 155.762 43.7787 155.715C42.779 155.668 41.8097 155.355 40.9703 154.808C40.1309 154.261 39.4515 153.5 39.0018 152.602C38.6887 151.978 38.492 151.301 38.4214 150.605C38.2855 150.593 38.1551 150.546 38.0425 150.468C37.9298 150.391 37.8388 150.286 37.7781 150.164V150.164Z" fill="black"/>
</g>
<path opacity="0.1" d="M103.631 15.59C102.448 15.3646 101.225 15.4985 100.118 15.9744C99.4541 16.2714 98.7354 16.4249 98.0085 16.4249C97.2817 16.4249 96.563 16.2714 95.8991 15.9744C95.1145 15.6292 94.2644 15.4593 93.4078 15.4764C92.5513 15.4935 91.7086 15.6972 90.9383 16.0736C90.4983 16.3068 90.0086 16.4294 89.511 16.4309C87.5004 16.4309 85.8278 14.3977 85.4807 11.7158C85.8816 11.4208 86.2228 11.0519 86.4861 10.6286C87.6649 8.72155 89.4781 7.49622 91.5397 7.49622C93.6012 7.49622 95.3965 8.69752 96.5753 10.5926C96.9275 11.1617 97.4197 11.6303 98.0045 11.9532C98.5893 12.2762 99.2471 12.4426 99.9145 12.4366H99.9684C101.554 12.4276 102.939 13.716 103.631 15.59Z" fill="#ED7878"/>
<path opacity="0.1" d="M109.741 7.18082L106.491 9.25007L108.463 5.64615C107.904 5.19892 107.212 4.95162 106.497 4.94338H106.446C106.221 4.94615 105.995 4.92907 105.773 4.89233L104.669 5.59509L105.142 4.73315C104.364 4.46138 103.69 3.95205 103.215 3.27657L101.237 4.51692L102.482 2.24344C101.33 0.852928 99.7739 0 98.0654 0C96.0158 0 94.1757 1.22533 93.0088 3.13241C92.6596 3.70204 92.1665 4.1688 91.5795 4.48528C90.9926 4.80176 90.3326 4.9567 89.6666 4.93437H89.5679C87.3059 4.93437 85.4688 7.50818 85.4688 10.6886C85.4688 13.8691 87.3059 16.4399 89.5679 16.4399C90.0654 16.4384 90.5552 16.3158 90.9951 16.0825C91.7655 15.7059 92.6083 15.5022 93.465 15.4856C94.3217 15.469 95.1717 15.6399 95.956 15.9864C96.6201 16.2825 97.3387 16.4354 98.0654 16.4354C98.7921 16.4354 99.5107 16.2825 100.175 15.9864C100.953 15.6473 101.795 15.4803 102.643 15.4969C103.492 15.5135 104.326 15.7132 105.091 16.0825C105.527 16.3095 106.011 16.4289 106.503 16.4309C108.768 16.4309 110.602 13.8571 110.602 10.6796C110.61 9.45948 110.314 8.25671 109.741 7.18082V7.18082Z" fill="#ED7878"/>
<path opacity="0.1" d="M36.0097 57.1973C34.3201 56.8764 32.5736 57.0667 30.992 57.7439C30.0428 58.1662 29.0156 58.3832 27.9774 58.3806C26.9391 58.378 25.913 58.156 24.9659 57.7289C23.8453 57.2357 22.6312 56.9929 21.4078 57.0173C20.1844 57.0416 18.9809 57.3326 17.8807 57.87C17.2514 58.2028 16.5513 58.3779 15.8401 58.3806C12.9677 58.3806 10.577 55.4764 10.0803 51.6443C10.6543 51.2245 11.142 50.6972 11.5165 50.0916C13.2011 47.3676 15.8102 45.6167 18.7394 45.6167C21.6686 45.6167 24.2448 47.3466 25.9204 50.0405C26.424 50.857 27.1296 51.5287 27.9685 51.9903C28.8074 52.4518 29.7511 52.6875 30.7077 52.6744H30.7825C33.0505 52.6714 35.0313 54.5124 36.0097 57.1973Z" fill="#ED7878"/>
<path opacity="0.1" d="M44.7464 45.1693L40.1027 48.1245L42.9213 42.9799C42.1225 42.3399 41.1337 41.9858 40.1117 41.9738H40.0369C39.7143 41.9785 39.3918 41.9544 39.0735 41.9017L37.5056 42.9198L38.1818 41.6885C37.0661 41.2971 36.1024 40.5612 35.4291 39.5862L32.6106 41.3881L34.3849 38.1146C32.7362 36.1294 30.5161 34.9131 28.0746 34.9131C25.1453 34.9131 22.5362 36.661 20.8517 39.385C20.3528 40.2023 19.6468 40.8723 18.8058 41.3266C17.9648 41.7808 17.0189 42.0031 16.0644 41.9708H15.9058C12.6714 41.9708 10.0503 45.6498 10.0503 50.1907C10.0503 54.7317 12.6714 58.4107 15.9058 58.4107C16.6175 58.4088 17.318 58.2325 17.9464 57.8971C19.0469 57.3602 20.2505 57.0697 21.4739 57.0458C22.6973 57.022 23.9112 57.2653 25.0316 57.759C25.9787 58.186 27.0048 58.4081 28.0431 58.4107C29.0813 58.4133 30.1085 58.1963 31.0577 57.774C32.1699 57.2895 33.3729 57.0508 34.585 57.0741C35.7972 57.0974 36.9902 57.3822 38.0831 57.9091C38.7055 58.2361 39.3972 58.4081 40.0997 58.4107C43.3342 58.4107 45.9552 54.7287 45.9552 50.1907C45.9778 48.4417 45.5621 46.715 44.7464 45.1693V45.1693Z" fill="#ED7878"/>
<path opacity="0.1" d="M223.799 27.3027C224.982 27.0775 226.204 27.2113 227.311 27.6871C227.975 27.9842 228.693 28.1377 229.419 28.1377C230.146 28.1377 230.864 27.9842 231.527 27.6871C232.312 27.3419 233.162 27.1719 234.018 27.189C234.875 27.2061 235.718 27.4099 236.488 27.7862C236.928 28.0191 237.418 28.1417 237.915 28.1436C239.926 28.1436 241.601 26.1104 241.949 23.4285C241.547 23.1343 241.206 22.7651 240.943 22.3413C239.77 20.4282 237.936 19.1938 235.881 19.1938C233.825 19.1938 232.027 20.3952 230.848 22.2902C230.496 22.8619 230.004 23.3328 229.418 23.6574C228.832 23.982 228.172 24.1494 227.503 24.1432H227.452C225.86 24.1402 224.472 25.4286 223.799 27.3027Z" fill="#ED7878"/>
<path opacity="0.1" d="M217.671 18.8936L220.92 20.9568L218.945 17.3529C219.505 16.9061 220.196 16.6588 220.911 16.6501H220.965C221.191 16.6527 221.416 16.6357 221.638 16.5991L222.739 17.3019L222.267 16.4399C223.05 16.1727 223.73 15.6653 224.211 14.9893L226.183 16.2447L224.936 13.9712C226.091 12.5807 227.628 11.7278 229.355 11.7278C231.404 11.7278 233.245 12.9531 234.411 14.8602C234.76 15.43 235.253 15.897 235.841 16.2135C236.428 16.53 237.088 16.6848 237.754 16.6622H237.861C240.126 16.6622 241.96 19.236 241.96 22.4164C241.96 25.5969 240.126 28.1677 237.861 28.1677C237.364 28.1655 236.874 28.0429 236.434 27.8103C235.664 27.4337 234.821 27.23 233.964 27.2134C233.108 27.1968 232.258 27.3677 231.473 27.7142C230.81 28.0102 230.092 28.1631 229.365 28.1631C228.639 28.1631 227.921 28.0102 227.257 27.7142C226.479 27.375 225.636 27.208 224.788 27.2246C223.939 27.2412 223.103 27.4409 222.338 27.8103C221.902 28.0376 221.418 28.1571 220.926 28.1587C218.664 28.1587 216.827 25.5849 216.827 22.4074C216.811 21.1837 217.101 19.9756 217.671 18.8936V18.8936Z" fill="#ED7878"/>
<path opacity="0.1" d="M184.201 233.318C203.205 233.318 218.61 230.629 218.61 227.312C218.61 223.994 203.205 221.305 184.201 221.305C165.198 221.305 149.792 223.994 149.792 227.312C149.792 230.629 165.198 233.318 184.201 233.318Z" fill="#ED7878"/>
<path d="M166.192 198.781L112.876 198.093L113.035 196.72L115.611 174.079H162.434L165.878 196.72L166.141 198.438L166.192 198.781Z" fill="#D0D2D5"/>
<path opacity="0.1" d="M166.141 198.438H139.536L112.876 198.093L113.035 196.72H165.878L166.141 198.438Z" fill="black"/>
<path d="M174.737 197.066H103.99V198.781H174.737V197.066Z" fill="#D0D2D5"/>
<path d="M242.236 38.0905C242.24 36.9071 241.776 35.7705 240.945 34.9304C240.115 34.0902 238.986 33.6152 237.807 33.6096H40.2345C39.6502 33.6124 39.0722 33.7306 38.5334 33.9576C37.9947 34.1846 37.5057 34.5158 37.0945 34.9325C36.6833 35.3491 36.3579 35.843 36.1368 36.3859C35.9158 36.9288 35.8034 37.51 35.8062 38.0965V158.302H242.236V38.0905Z" fill="#3F3D56"/>
<path d="M35.8062 157.101V171.18C35.8062 172.359 36.2727 173.49 37.1032 174.323C37.9336 175.157 39.06 175.625 40.2344 175.625H237.807C238.982 175.625 240.108 175.157 240.939 174.323C241.769 173.49 242.236 172.359 242.236 171.18V157.101H35.8062Z" fill="#D0D2D5"/>
<path d="M234.717 41.1478H44.3516V149.209H234.717V41.1478Z" fill="white"/>
<path d="M140.047 170.282C140.746 170.283 141.436 170.124 142.065 169.818C142.694 169.511 143.245 169.065 143.677 168.514C143.808 168.346 143.928 168.169 144.036 167.985L141.501 167.555L144.239 167.574C144.502 167 144.645 166.38 144.66 165.749C144.675 165.118 144.561 164.491 144.326 163.907L140.655 165.817L144.042 163.318C143.724 162.769 143.297 162.292 142.787 161.916C142.277 161.54 141.696 161.273 141.079 161.131C140.463 160.99 139.823 160.978 139.202 161.095C138.58 161.212 137.989 161.457 137.465 161.813C136.942 162.169 136.497 162.63 136.158 163.166C135.819 163.702 135.594 164.302 135.496 164.929C135.398 165.557 135.429 166.198 135.588 166.812C135.748 167.427 136.031 168.002 136.421 168.502V168.502C136.851 169.055 137.401 169.503 138.029 169.812C138.658 170.12 139.348 170.281 140.047 170.282V170.282Z" fill="#ED7878"/>
<path opacity="0.1" d="M144.661 175.622L165.932 197.066L162.667 175.622H144.661Z" fill="black"/>
<path opacity="0.1" d="M234.773 41.1598H44.2019V47.4727H234.773V41.1598Z" fill="#444053"/>
<path opacity="0.3" d="M167.613 42.259H110.542C110.447 42.259 110.369 42.337 110.369 42.4332V45.926C110.369 46.0222 110.447 46.1002 110.542 46.1002H167.613C167.709 46.1002 167.787 46.0222 167.787 45.926V42.4332C167.787 42.337 167.709 42.259 167.613 42.259Z" fill="#ED7878"/>
<path d="M166.081 44.5775H165.941L165.89 44.5325C166.064 44.3225 166.159 44.0579 166.159 43.7847C166.157 43.5604 166.089 43.3417 165.964 43.1561C165.839 42.9706 165.661 42.8265 165.454 42.742C165.247 42.6576 165.02 42.6365 164.801 42.6816C164.582 42.7267 164.381 42.8358 164.224 42.9952C164.067 43.1546 163.961 43.3572 163.918 43.5774C163.875 43.7975 163.899 44.0254 163.985 44.2323C164.071 44.4391 164.217 44.6157 164.403 44.7397C164.589 44.8637 164.808 44.9295 165.031 44.9289C165.304 44.9279 165.567 44.8312 165.776 44.6556L165.827 44.7007V44.8418L166.704 45.7218L166.964 45.4575L166.081 44.5775ZM165.031 44.5775C164.875 44.5781 164.722 44.5321 164.592 44.4454C164.461 44.3586 164.36 44.235 164.299 44.0902C164.239 43.9454 164.223 43.7858 164.253 43.6318C164.283 43.4778 164.358 43.3363 164.469 43.2251C164.579 43.1139 164.72 43.0381 164.873 43.0073C165.026 42.9764 165.185 42.992 165.33 43.0519C165.474 43.1118 165.598 43.2134 165.685 43.3439C165.772 43.4743 165.818 43.6277 165.818 43.7847C165.819 43.8888 165.799 43.992 165.76 44.0883C165.721 44.1847 165.663 44.2723 165.59 44.346C165.516 44.4198 165.429 44.4782 165.333 44.5179C165.238 44.5577 165.135 44.5779 165.031 44.5775V44.5775Z" fill="#3F3D56"/>
<path opacity="0.8" d="M47.628 45.4725C48.2642 45.4725 48.78 44.9549 48.78 44.3163C48.78 43.6777 48.2642 43.16 47.628 43.16C46.9918 43.16 46.4761 43.6777 46.4761 44.3163C46.4761 44.9549 46.9918 45.4725 47.628 45.4725Z" fill="#FA5959"/>
<path opacity="0.8" d="M50.7965 45.4725C51.4327 45.4725 51.9484 44.9549 51.9484 44.3163C51.9484 43.6777 51.4327 43.16 50.7965 43.16C50.1603 43.16 49.6445 43.6777 49.6445 44.3163C49.6445 44.9549 50.1603 45.4725 50.7965 45.4725Z" fill="#FED253"/>
<path opacity="0.8" d="M53.9681 45.4725C54.6043 45.4725 55.1201 44.9549 55.1201 44.3163C55.1201 43.6777 54.6043 43.16 53.9681 43.16C53.3319 43.16 52.8162 43.6777 52.8162 44.3163C52.8162 44.9549 53.3319 45.4725 53.9681 45.4725Z" fill="#8CCF4D"/>
<path d="M149.619 87.5153C147.007 84.0315 143.222 81.8331 139.009 81.8331C134.796 81.8331 131.011 84.0315 128.399 87.5153C128.977 88.937 129.831 90.2287 130.913 91.3145C132.249 92.6552 133.895 93.6433 135.704 94.1906C137.513 94.738 139.429 94.8276 141.281 94.4514C143.133 94.0753 144.863 93.2452 146.318 92.035C147.773 90.8247 148.907 89.2721 149.619 87.5153V87.5153Z" fill="#ED7878"/>
<path d="M126.493 89.2542C126.657 89.3736 126.834 89.4743 127.02 89.5546C129.025 93.624 133.178 96.7384 137.944 96.9997V116.296C134.339 116.079 131.451 114.256 129.025 111.412C128.815 111.572 128.66 111.716 128.516 111.851C128.314 112.042 128.174 112.289 128.111 112.561C128.049 112.832 128.068 113.116 128.166 113.377C128.297 113.735 128.332 114.123 128.265 114.5C128.198 114.876 128.033 115.228 127.786 115.519C127.538 115.811 127.219 116.031 126.859 116.157C126.499 116.283 126.113 116.311 125.739 116.238C125.365 116.165 125.017 115.993 124.731 115.74C124.445 115.488 124.231 115.163 124.111 114.8C123.991 114.437 123.969 114.048 124.048 113.674C124.127 113.3 124.304 112.954 124.56 112.671C124.637 112.586 124.722 112.507 124.812 112.436C124.864 112.389 124.921 112.348 124.982 112.313C125.311 111.118 126.092 110.04 127.361 109.052C125.933 106.603 125.06 103.868 124.803 101.042C124.618 101.044 124.433 101.056 124.249 101.078C124 101.112 123.764 101.214 123.568 101.372C123.373 101.531 123.224 101.741 123.139 101.979C123.001 102.348 122.765 102.672 122.456 102.916C122.148 103.16 121.779 103.314 121.389 103.362C121 103.411 120.604 103.351 120.246 103.19C119.888 103.029 119.58 102.772 119.357 102.448C119.133 102.125 119.002 101.745 118.978 101.352C118.954 100.959 119.038 100.566 119.22 100.217C119.402 99.8681 119.676 99.5757 120.012 99.3717C120.348 99.1677 120.733 99.0599 121.125 99.0599C121.212 99.0614 121.299 99.0675 121.386 99.0779C121.707 98.8458 122.064 98.6673 122.442 98.5494C123.18 98.3175 123.948 98.1931 124.722 98.18C124.798 96.1765 125.176 94.196 125.841 92.3056C125.358 92.0297 124.902 91.7079 124.48 91.3445C124.068 90.9757 123.731 90.5312 123.486 90.0351C123.357 89.7844 123.158 89.576 122.915 89.4344C122.727 89.3213 122.556 89.1828 122.406 89.023C122.14 88.7352 121.957 88.3799 121.878 87.9956C121.798 87.6112 121.825 87.2124 121.954 86.842C122.084 86.4716 122.312 86.1438 122.613 85.8938C122.915 85.6439 123.279 85.4813 123.666 85.4236C124.053 85.366 124.448 85.4154 124.809 85.5667C125.17 85.7179 125.483 85.9651 125.714 86.2817C125.945 86.5983 126.086 86.9723 126.121 87.3633C126.156 87.7543 126.084 88.1475 125.913 88.5004C126.047 88.7926 126.245 89.0504 126.493 89.2542Z" fill="#ED7878"/>
<path d="M203.761 223.81C203.587 223.533 203.367 223.288 203.111 223.086C201.804 221.846 201.196 220.026 200.873 218.242C200.55 216.458 200.457 214.638 199.94 212.893C199.658 211.998 199.306 211.127 198.886 210.289C198.587 209.646 198.21 208.388 197.663 207.937C197.555 207.844 197.425 207.781 197.286 207.754C197.027 207.202 196.658 206.71 196.203 206.307C195.347 205.529 194.303 204.91 193.731 203.904C193.574 203.555 193.38 203.224 193.154 202.916C192.768 202.489 192.157 202.315 191.801 201.865C191.337 201.282 191.442 200.447 191.502 199.705C191.562 198.964 191.502 198.075 190.862 197.684C190.479 197.447 189.985 197.471 189.587 197.261C188.989 196.96 188.752 196.204 188.764 195.528C188.776 194.852 188.986 194.194 189.04 193.519C189.207 191.368 187.795 189.23 188.339 187.146C188.546 186.356 189.019 185.671 189.369 184.935C189.491 184.691 189.591 184.435 189.668 184.173C190.601 184.544 191.583 184.782 192.582 184.878C190.934 181.166 191.352 176.854 190.583 172.865L190.682 172.73C191.459 171.702 191.9 170.458 191.945 169.168C191.945 167.685 191.254 166.297 190.943 164.843C190.676 163.609 190.688 162.318 190.344 161.104C190.105 160.35 189.788 159.624 189.399 158.936C189.026 158.241 188.634 157.558 188.223 156.885C187.84 155.611 187.456 154.338 187.071 153.065C186.532 151.278 185.979 149.461 184.931 147.917C184.548 147.352 184.432 146.205 183.842 145.863C183.364 145.614 182.821 145.519 182.286 145.59C181.455 145.121 180.725 144.445 180.62 143.52C180.609 143.318 180.63 143.116 180.68 142.92H180.781C182.098 142.799 182.765 141.634 183.45 140.613C184.557 138.961 184.136 136.727 183.45 134.847C183.28 134.253 182.973 133.709 182.553 133.258C181.592 132.357 180.072 132.555 178.834 132.12C178.418 131.976 178.029 131.756 177.604 131.654C176.781 131.462 175.919 131.732 175.165 132.114C174.411 132.495 173.708 132.988 172.918 133.288C172.128 133.588 171.153 133.826 170.958 134.64C170.904 134.914 170.927 135.198 171.024 135.459C171.206 135.982 171.526 136.445 171.949 136.799C171.612 137.495 171.431 138.256 171.416 139.029C171.401 139.803 171.553 140.57 171.862 141.279C172.171 141.988 172.63 142.62 173.206 143.134C173.783 143.647 174.463 144.029 175.201 144.253C175.429 144.619 175.641 144.992 175.836 145.373C176.183 146.046 176.476 146.839 176.356 147.56C176.14 147.79 175.94 148.036 175.758 148.295C174.899 149.497 174.411 150.905 173.962 152.311C173.36 154.105 172.877 155.939 172.517 157.798C171.787 159.357 170.896 160.846 170.366 162.483C169.418 162.484 168.474 162.357 167.559 162.104L165.034 161.531C164.154 161.33 163.239 161.113 162.551 160.531C162.186 160.23 161.901 159.831 161.53 159.534C161.159 159.236 160.414 158.888 160.007 159.134C159.933 159.18 159.864 159.233 159.801 159.293C159.43 158.54 159.077 157.792 158.646 157.062C158.027 156.041 157.105 155.107 155.938 154.912C155.225 154.797 154.496 154.967 153.907 155.386C153.224 155.873 152.797 156.888 153.308 157.573C153.436 157.725 153.575 157.867 153.724 157.999C154.07 158.4 154.38 158.831 154.649 159.287C155.613 160.646 157.056 161.587 158.685 161.918L158.58 162.219C158.368 162.843 157.916 163.597 158.03 164.246L169.262 168.105C169.982 168.399 170.747 168.568 171.524 168.607C171.827 168.604 172.128 168.564 172.422 168.486V169.063V169.087C172.451 173.048 171.823 176.983 171.706 180.941C171.686 181.665 171.706 182.443 172.161 183.007C172.67 183.626 173.574 183.749 174.36 183.608C174.55 183.576 174.735 183.534 174.917 183.482C175.183 184.478 175.375 185.493 175.491 186.518L176.233 191.882C176.329 192.431 176.368 192.989 176.35 193.546C176.263 194.804 175.602 195.93 175.123 197.093C174.645 198.255 174.36 199.645 174.989 200.733C175.186 201.069 175.459 201.354 175.635 201.703C175.859 202.242 175.962 202.825 175.934 203.408C175.98 205.026 176.024 206.646 176.066 208.268C175.935 208.246 175.801 208.273 175.689 208.343C175.067 208.829 175.135 211.145 175.09 211.863C175.043 213.064 175.09 214.289 175.025 215.503C174.947 217.138 174.685 218.759 174.244 220.335C174.136 220.847 173.9 221.324 173.559 221.719C173.209 222.025 172.791 222.242 172.341 222.353C170.85 222.822 169.291 223.035 167.73 222.984C167.099 222.963 166.44 222.903 165.854 223.143C165.268 223.383 164.795 224.044 165.007 224.645C165.19 225.149 165.743 225.389 166.243 225.579C167.384 225.982 168.486 226.491 169.534 227.098C169.938 227.374 170.363 227.616 170.806 227.822C171.23 227.975 171.67 228.084 172.116 228.146L177.421 229.065C178.507 229.252 179.815 229.366 180.506 228.465C180.88 227.978 180.934 227.318 180.916 226.699C180.886 225.498 180.647 224.275 180.802 223.074C180.921 222.364 181.107 221.667 181.359 220.993C181.887 219.417 182.418 217.842 182.951 216.269C183.483 214.689 184.022 213.094 184.228 211.436C184.303 210.836 184.297 210.151 183.839 209.775C183.724 209.68 183.589 209.61 183.444 209.571C183.426 208.124 183.238 206.673 183.319 205.225C183.34 204.865 183.376 204.505 183.405 204.141C183.683 204.406 183.931 204.7 184.145 205.018C184.656 205.823 184.845 206.886 185.626 207.421C186.29 207.877 187.274 207.853 187.741 208.514C187.891 208.768 188.004 209.042 188.076 209.328C188.347 210.036 188.754 210.684 189.273 211.235C189.451 211.894 189.699 212.533 190.012 213.139C190.453 214.074 190.892 215.006 191.328 215.935C191.778 216.938 192.277 217.917 192.825 218.869C193.243 219.469 193.58 220.121 193.827 220.809C194.249 222.293 193.561 223.921 192.471 225.014C191.382 226.107 189.946 226.735 188.531 227.321C188.382 227.371 188.245 227.453 188.13 227.561C188.007 227.707 187.942 227.893 187.947 228.083C187.947 228.777 188.516 229.372 189.168 229.585C189.835 229.765 190.534 229.79 191.212 229.66C195.036 229.195 198.848 228.258 202.229 226.393C202.734 226.152 203.182 225.805 203.542 225.374C203.716 225.158 203.828 224.898 203.866 224.622C203.905 224.347 203.868 224.066 203.761 223.81V223.81Z" fill="url(#paint0_linear)"/>
<path d="M187.601 156.461C188.239 157.444 188.837 158.452 189.396 159.483C189.787 160.165 190.105 160.887 190.344 161.636C190.691 162.837 190.682 164.12 190.943 165.345C191.242 166.787 191.942 168.162 191.942 169.64C191.896 170.92 191.455 172.154 190.679 173.172C189.906 174.18 189.021 175.097 188.04 175.905C185.781 170.029 184.519 163.816 184.306 157.522C184.276 156.651 184.27 155.753 184.588 154.939C184.782 154.428 185.716 153.029 186.317 153.578C186.535 153.779 186.592 154.686 186.727 154.99C186.979 155.503 187.271 155.995 187.601 156.461V156.461Z" fill="#2F2E41"/>
<path opacity="0.1" d="M187.601 156.461C188.239 157.444 188.837 158.452 189.396 159.483C189.787 160.165 190.105 160.887 190.344 161.636C190.691 162.837 190.682 164.12 190.943 165.345C191.242 166.787 191.942 168.162 191.942 169.64C191.896 170.92 191.455 172.154 190.679 173.172C189.906 174.18 189.021 175.097 188.04 175.905C185.781 170.029 184.519 163.816 184.306 157.522C184.276 156.651 184.27 155.753 184.588 154.939C184.782 154.428 185.716 153.029 186.317 153.578C186.535 153.779 186.592 154.686 186.727 154.99C186.979 155.503 187.271 155.995 187.601 156.461V156.461Z" fill="black"/>
<path d="M108.717 115.488C106.35 117.86 106.066 118.906 104.645 119.377C103.224 119.849 98.1103 122.506 99.717 125.453L104.038 128.318L104.163 128.402L104.824 130.396L98.2898 142.073C98.2898 142.073 87.5183 137.129 86.4621 144.442C85.4059 151.755 86.0761 153.752 85.7919 157.657C85.5076 161.561 85.8846 162.69 84.9361 162.69C83.9877 162.69 83.6137 160.125 83.6137 160.125C83.6137 160.125 83.5538 160.008 83.4491 159.789C82.0398 156.849 72.4741 135.264 87.7966 120.428C87.7966 120.428 94.8938 119.96 96.6023 111.791C97.7811 106.145 101.904 106.631 104.645 107.781C105.536 108.132 106.366 108.622 107.104 109.232C107.769 109.864 108.36 110.569 108.867 111.334C109.648 112.572 110.073 114.124 108.717 115.488Z" fill="#D0D2D5"/>
<path opacity="0.1" d="M104.163 128.402L104.825 130.396L98.2898 142.073C98.2898 142.073 87.5183 137.129 86.4621 144.442C85.4059 151.755 86.0762 153.752 85.7919 157.657C85.5077 161.561 85.8847 162.69 84.9362 162.69C83.9877 162.69 83.6137 160.125 83.6137 160.125C83.6137 160.125 83.5538 160.008 83.4491 159.789C82.9734 156.137 80.5617 134.775 89.3046 135.91C89.3046 135.91 96.3988 139.238 97.5328 137.91C98.4304 136.859 102.416 130.813 104.038 128.333L104.163 128.402Z" fill="black"/>
<path opacity="0.1" d="M108.867 111.316L104.546 116.245C104.546 116.245 99.5285 122.984 98.4873 122.699C98.1755 122.63 97.8578 122.593 97.5388 122.587C97.1914 122.561 96.8587 122.436 96.5793 122.227C96.2998 122.018 96.085 121.734 95.9597 121.408C95.8344 121.082 95.8039 120.727 95.8715 120.384C95.9392 120.041 96.1023 119.724 96.342 119.47C98.0534 117.668 101.207 114.247 101.414 113.488C101.62 112.728 103.628 109.397 104.633 107.766C105.524 108.117 106.354 108.606 107.093 109.217C107.761 109.847 108.356 110.551 108.867 111.316V111.316Z" fill="black"/>
<path d="M231.111 182.22C230.378 183.692 226.623 189.212 224.98 191.624L224.212 192.759C224.212 192.759 223.912 194.753 219.008 192.281C214.104 189.81 98.8823 141.01 98.8823 141.01L98.1013 138.655L103.786 130.111L230.073 179.085C230.073 179.085 232.06 180.319 231.111 182.22Z" fill="#454B69"/>
<path opacity="0.1" d="M224.98 191.624L224.212 192.759C224.212 192.759 223.912 194.753 219.008 192.281C214.104 189.81 98.8823 141.01 98.8823 141.01L98.1013 138.655L224.98 191.624Z" fill="black"/>
<path d="M155.48 159.747C154.311 159.555 153.012 159.648 152.102 160.411C151.553 160.878 151.205 161.541 151.133 162.261C151.055 163.093 151.537 164.081 152.369 164.144C152.569 164.146 152.769 164.133 152.967 164.105C153.493 164.102 154.017 164.147 154.535 164.237C155.554 164.333 156.581 164.183 157.53 163.798C158.479 163.413 159.323 162.806 159.99 162.026C160.705 161.125 159.762 160.735 158.918 160.555C157.763 160.309 156.635 159.933 155.48 159.747Z" fill="#FBBEBE"/>
<path d="M175.491 186.869L176.233 192.161C176.328 192.707 176.366 193.262 176.347 193.816C176.26 195.062 175.599 196.18 175.123 197.333C174.648 198.486 174.357 199.868 174.989 200.937C175.183 201.27 175.455 201.555 175.632 201.901C175.856 202.435 175.959 203.013 175.931 203.592L176.135 211.1C178.444 211.258 180.763 211.245 183.07 211.061C183.161 211.065 183.25 211.038 183.322 210.983C183.383 210.905 183.413 210.808 183.408 210.709C183.51 208.953 183.205 207.193 183.304 205.436C183.34 204.793 183.429 204.153 183.441 203.508C183.477 200.892 182.191 198.33 182.58 195.744C182.702 195.092 182.862 194.447 183.058 193.813C184.288 189.308 184.028 184.575 183.756 179.923C183.76 179.848 183.739 179.774 183.696 179.713C183.652 179.668 183.595 179.638 183.534 179.626C182.225 179.231 180.841 179.159 179.498 179.415C178.156 179.672 176.894 180.248 175.821 181.097C175.494 181.361 174.672 181.617 174.456 181.932C174.157 182.371 174.549 182.809 174.722 183.275C175.107 184.442 175.365 185.647 175.491 186.869V186.869Z" fill="#3F3D56"/>
<path opacity="0.1" d="M175.491 186.869L176.233 192.161C176.328 192.707 176.366 193.262 176.347 193.816C176.26 195.062 175.599 196.18 175.123 197.333C174.648 198.486 174.357 199.868 174.989 200.937C175.183 201.27 175.455 201.555 175.632 201.901C175.856 202.435 175.959 203.013 175.931 203.592L176.135 211.1C178.444 211.258 180.763 211.245 183.07 211.061C183.161 211.065 183.25 211.038 183.322 210.983C183.383 210.905 183.413 210.808 183.408 210.709C183.51 208.953 183.205 207.193 183.304 205.436C183.34 204.793 183.429 204.153 183.441 203.508C183.477 200.892 182.191 198.33 182.58 195.744C182.702 195.092 182.862 194.447 183.058 193.813C184.288 189.308 184.028 184.575 183.756 179.923C183.76 179.848 183.739 179.774 183.696 179.713C183.652 179.668 183.595 179.638 183.534 179.626C182.225 179.231 180.841 179.159 179.498 179.415C178.156 179.672 176.894 180.248 175.821 181.097C175.494 181.361 174.672 181.617 174.456 181.932C174.157 182.371 174.549 182.809 174.722 183.275C175.107 184.442 175.365 185.647 175.491 186.869V186.869Z" fill="black"/>
<path d="M189.366 185.275C189.016 186.005 188.546 186.683 188.336 187.467C187.792 189.536 189.201 191.672 189.034 193.792C188.98 194.462 188.773 195.114 188.758 195.783C188.743 196.453 188.989 197.198 189.581 197.507C189.979 197.711 190.479 197.69 190.853 197.925C191.484 198.312 191.556 199.192 191.493 199.931C191.43 200.67 191.325 201.495 191.792 202.072C192.148 202.52 192.759 202.694 193.142 203.117C193.37 203.421 193.563 203.75 193.719 204.096C194.291 205.099 195.335 205.712 196.191 206.499C197.046 207.286 197.77 208.439 197.387 209.529C197.106 210.328 196.316 210.821 195.556 211.196C194.17 211.884 192.706 212.403 191.197 212.743C191.035 212.792 190.863 212.801 190.697 212.77C190.529 212.708 190.378 212.605 190.26 212.469C189.378 211.601 188.465 210.692 188.058 209.523C187.986 209.24 187.873 208.969 187.723 208.718C187.256 208.061 186.272 208.085 185.608 207.631C184.83 207.1 184.641 206.045 184.133 205.25C183.624 204.454 182.879 203.979 182.337 203.279C181.422 202.114 181.197 200.558 180.542 199.228C180.264 198.663 179.908 198.135 179.686 197.546C179.463 196.841 179.325 196.111 179.276 195.372C178.855 191.864 177.78 188.332 178.457 184.86C178.606 184.098 178.837 183.359 178.932 182.572C179.097 181.211 178.837 179.818 179.037 178.46C179.042 178.29 179.085 178.123 179.163 177.972C179.242 177.82 179.353 177.689 179.489 177.586C179.651 177.514 179.826 177.478 180.003 177.481C181.777 177.386 183.556 177.426 185.323 177.601C186.221 177.689 187.226 177.872 187.765 178.608C188.223 179.238 188.199 180.082 188.345 180.848C188.528 181.791 189.004 182.305 189.503 183.043C190.003 183.782 189.734 184.512 189.366 185.275Z" fill="#3F3D56"/>
<path d="M182.463 209.679C182.936 209.679 183.459 209.649 183.824 209.95C184.279 210.325 184.285 211.013 184.213 211.598C184.004 213.244 183.468 214.827 182.933 216.404L181.341 221.092C181.089 221.761 180.903 222.453 180.785 223.158C180.629 224.359 180.868 225.561 180.898 226.762C180.898 227.363 180.859 228.029 180.485 228.513C179.809 229.387 178.49 229.285 177.403 229.113L172.104 228.213C171.657 228.153 171.218 228.045 170.794 227.891C170.352 227.686 169.927 227.446 169.522 227.173C168.474 226.572 167.372 226.069 166.231 225.672C165.734 225.486 165.178 225.248 164.998 224.747C164.786 224.146 165.259 223.485 165.845 223.245C166.432 223.005 167.087 223.065 167.721 223.083C169.281 223.133 170.838 222.922 172.329 222.458C172.778 222.348 173.194 222.132 173.544 221.828C173.899 221.427 174.14 220.939 174.244 220.413C174.695 218.848 174.964 217.235 175.046 215.608C175.109 214.406 175.067 213.205 175.115 212.004C175.144 211.292 175.076 209.001 175.698 208.511C176.174 208.145 178.131 209.157 178.774 209.304C179.983 209.582 181.223 209.708 182.463 209.679V209.679Z" fill="#2F2E41"/>
<path d="M199.919 213.019C200.436 214.74 200.517 216.56 200.852 218.329C201.187 220.098 201.78 221.903 203.087 223.134C203.342 223.337 203.561 223.58 203.737 223.855C203.847 224.112 203.884 224.395 203.845 224.672C203.805 224.949 203.69 225.21 203.512 225.425C203.151 225.853 202.703 226.198 202.199 226.438C198.821 228.288 195.018 229.222 191.185 229.684C190.508 229.811 189.81 229.786 189.144 229.609C188.492 229.387 187.914 228.798 187.926 228.107C187.92 227.918 187.984 227.733 188.106 227.588C188.222 227.481 188.36 227.4 188.51 227.351C189.922 226.768 191.355 226.134 192.448 225.059C193.54 223.984 194.225 222.356 193.803 220.897C193.553 220.213 193.214 219.566 192.795 218.971C192.248 218.027 191.748 217.056 191.299 216.061L189.982 213.289C189.596 212.478 189.207 211.643 189.141 210.749C190.795 210.823 192.447 210.557 193.994 209.968C194.717 209.672 195.39 209.267 195.99 208.766C196.499 208.34 196.963 207.544 197.648 208.1C198.198 208.544 198.545 209.796 198.869 210.43C199.288 211.263 199.64 212.129 199.919 213.019Z" fill="#2F2E41"/>
<path d="M180.626 144.187C180.757 145.34 181.87 146.1 182.933 146.557L176.209 148.71C176.643 147.875 176.293 146.854 175.862 146.007C175.511 145.336 175.111 144.693 174.666 144.082C174.6 143.989 174.525 143.872 174.573 143.764C174.616 143.693 174.683 143.641 174.761 143.616C176.144 142.998 177.568 142.358 179.079 142.133C179.516 142.07 180.342 141.896 180.668 142.34C180.994 142.785 180.563 143.655 180.626 144.187Z" fill="#FBBEBE"/>
<path opacity="0.1" d="M180.626 144.187C180.757 145.34 181.87 146.1 182.933 146.557L176.209 148.71C176.643 147.875 176.293 146.854 175.862 146.007C175.511 145.336 175.111 144.693 174.666 144.082C174.6 143.989 174.525 143.872 174.573 143.764C174.616 143.693 174.683 143.641 174.761 143.616C176.144 142.998 177.568 142.358 179.079 142.133C179.516 142.07 180.342 141.896 180.668 142.34C180.994 142.785 180.563 143.655 180.626 144.187Z" fill="black"/>
<path d="M176.718 145.121C179.63 145.121 181.99 142.752 181.99 139.829C181.99 136.907 179.63 134.537 176.718 134.537C173.807 134.537 171.446 136.907 171.446 139.829C171.446 142.752 173.807 145.121 176.718 145.121Z" fill="#FBBEBE"/>
<path d="M172.149 183.377C172.661 183.992 173.561 184.112 174.348 183.977C176.188 183.677 177.693 182.317 179.495 181.827C181.703 181.226 184.04 181.998 186.125 182.944C188.211 183.89 190.284 185.047 192.564 185.209C190.503 180.596 191.681 175.046 189.71 170.394C189.228 169.255 188.555 168.159 188.447 166.928C188.312 165.399 189.072 163.924 189.189 162.405C189.297 161.05 188.89 159.702 188.501 158.41C188.02 156.825 187.539 155.239 187.059 153.653C186.52 151.878 185.967 150.073 184.922 148.548C184.536 147.986 184.42 146.848 183.833 146.509C182.553 145.767 180.611 146.701 179.222 146.752C177.834 146.803 176.568 147.794 175.758 148.914C174.899 150.097 174.411 151.506 173.962 152.9C173.248 154.974 172.714 157.108 172.368 159.275C172.323 159.6 172.284 159.924 172.254 160.252C171.955 163.336 172.392 166.438 172.415 169.538V169.559C172.445 173.49 171.817 177.397 171.7 181.325C171.688 182.043 171.706 182.827 172.149 183.377Z" fill="#2F2E41"/>
<path opacity="0.1" d="M172.425 169.541C173.457 169.279 174.39 168.61 175.192 167.877C175.887 167.253 176.504 166.547 177.029 165.775C177.691 164.736 178.223 163.619 178.612 162.45C179.72 159.322 180.424 156.065 180.707 152.758C180.784 151.857 180.808 150.89 180.273 150.176C179.972 149.788 179.55 149.515 179.074 149.399C178.599 149.283 178.099 149.333 177.655 149.539C176.949 149.884 176.491 150.584 176.066 151.254C175.225 152.581 174.378 153.927 173.837 155.404C173.598 156.059 173.421 156.732 173.188 157.389C172.95 158.038 172.677 158.673 172.368 159.29C172.323 159.615 172.284 159.939 172.254 160.267C171.976 163.351 172.401 166.441 172.425 169.541Z" fill="black"/>
<path d="M180.258 149.596C180.793 150.311 180.769 151.287 180.695 152.176C180.412 155.483 179.709 158.74 178.6 161.867C178.214 163.047 177.683 164.173 177.017 165.219C176.491 165.991 175.874 166.697 175.18 167.321C174.163 168.252 172.924 169.084 171.545 169.096C170.769 169.06 170.004 168.892 169.283 168.601L158.048 164.762C157.934 164.12 158.386 163.369 158.598 162.75L159.197 160.969C159.367 160.477 159.565 159.945 160.01 159.678C160.456 159.411 161.162 159.777 161.533 160.074C161.904 160.372 162.186 160.762 162.551 161.065C163.242 161.642 164.154 161.858 165.034 162.057L167.556 162.624C168.471 162.876 169.415 163.002 170.363 163C171.066 160.843 172.404 158.945 173.161 156.807C173.394 156.152 173.571 155.476 173.813 154.822C174.351 153.344 175.201 152.002 176.042 150.671C176.464 150.004 176.922 149.305 177.631 148.956C178.076 148.748 178.579 148.697 179.056 148.814C179.534 148.93 179.957 149.206 180.258 149.596V149.596Z" fill="#2F2E41"/>
<path d="M178.4 141.025C178.36 140.676 178.252 140.34 178.083 140.033C177.994 139.88 177.86 139.759 177.698 139.688C177.537 139.616 177.357 139.599 177.185 139.637C176.658 139.802 176.482 140.619 175.931 140.646C175.56 140.664 175.294 140.286 175.177 139.931C175.061 139.577 174.998 139.172 174.72 138.922C174.526 138.777 174.303 138.674 174.067 138.622C172.79 138.216 171.47 137.469 171.045 136.192C170.945 135.933 170.921 135.651 170.976 135.378C171.171 134.571 172.173 134.327 172.936 134.036C173.699 133.745 174.432 133.246 175.18 132.868C175.928 132.489 176.796 132.222 177.619 132.414C178.036 132.546 178.447 132.699 178.849 132.874C180.087 133.306 181.604 133.105 182.565 134.003C182.984 134.448 183.292 134.988 183.462 135.577C184.133 137.445 184.557 139.661 183.447 141.301C182.762 142.313 182.098 143.469 180.781 143.592C179.249 143.721 178.642 142.328 178.4 141.025Z" fill="#2F2E41"/>
<g opacity="0.1">
<path opacity="0.1" d="M176.06 139.295C175.943 138.94 175.88 138.535 175.605 138.286C175.411 138.14 175.189 138.038 174.953 137.985C173.672 137.58 172.356 136.832 171.928 135.556C171.83 135.296 171.808 135.014 171.862 134.742C171.891 134.613 171.945 134.492 172.021 134.384C171.533 134.598 171.108 134.88 170.988 135.378C170.933 135.651 170.957 135.933 171.057 136.192C171.482 137.469 172.802 138.217 174.079 138.622C174.315 138.675 174.538 138.777 174.731 138.922C175.01 139.172 175.07 139.574 175.189 139.931C175.309 140.289 175.572 140.664 175.943 140.646C176.314 140.628 176.494 140.289 176.73 140.003C176.404 139.961 176.168 139.625 176.06 139.295Z" fill="black"/>
<path opacity="0.1" d="M181.661 142.947C180.123 143.088 179.516 141.682 179.267 140.388C179.235 140.041 179.133 139.704 178.968 139.397C178.88 139.244 178.745 139.123 178.584 139.052C178.423 138.98 178.243 138.962 178.071 139C177.798 139.133 177.568 139.342 177.409 139.601C177.547 139.614 177.679 139.659 177.796 139.732C177.914 139.805 178.013 139.904 178.086 140.021C178.255 140.328 178.363 140.664 178.403 141.013C178.645 142.307 179.253 143.715 180.796 143.571C181.407 143.504 181.97 143.21 182.376 142.748C182.151 142.854 181.909 142.921 181.661 142.947V142.947Z" fill="black"/>
</g>
<path d="M243.289 198.814C248.625 198.814 252.95 197.979 252.95 196.949C252.95 195.919 248.625 195.083 243.289 195.083C237.953 195.083 233.627 195.919 233.627 196.949C233.627 197.979 237.953 198.814 243.289 198.814Z" fill="#ED7878"/>
<path d="M243.127 197.633C243.749 197.633 244.253 196.972 244.253 196.156C244.253 195.34 243.749 194.678 243.127 194.678C242.506 194.678 242.002 195.34 242.002 196.156C242.002 196.972 242.506 197.633 243.127 197.633Z" fill="#3F3D56"/>
<path d="M243.127 195.825C243.749 195.825 244.253 195.164 244.253 194.348C244.253 193.532 243.749 192.87 243.127 192.87C242.506 192.87 242.002 193.532 242.002 194.348C242.002 195.164 242.506 195.825 243.127 195.825Z" fill="#3F3D56"/>
<path d="M243.127 194.02C243.749 194.02 244.253 193.359 244.253 192.543C244.253 191.727 243.749 191.065 243.127 191.065C242.506 191.065 242.002 191.727 242.002 192.543C242.002 193.359 242.506 194.02 243.127 194.02Z" fill="#3F3D56"/>
<path d="M243.127 192.212C243.749 192.212 244.253 191.551 244.253 190.735C244.253 189.919 243.749 189.257 243.127 189.257C242.506 189.257 242.002 189.919 242.002 190.735C242.002 191.551 242.506 192.212 243.127 192.212Z" fill="#3F3D56"/>
<path d="M243.127 190.404C243.749 190.404 244.253 189.743 244.253 188.927C244.253 188.111 243.749 187.449 243.127 187.449C242.506 187.449 242.002 188.111 242.002 188.927C242.002 189.743 242.506 190.404 243.127 190.404Z" fill="#3F3D56"/>
<path d="M243.127 188.599C243.749 188.599 244.253 187.938 244.253 187.122C244.253 186.306 243.749 185.644 243.127 185.644C242.506 185.644 242.002 186.306 242.002 187.122C242.002 187.938 242.506 188.599 243.127 188.599Z" fill="#3F3D56"/>
<path d="M243.127 186.791C243.749 186.791 244.253 186.13 244.253 185.314C244.253 184.498 243.749 183.836 243.127 183.836C242.506 183.836 242.002 184.498 242.002 185.314C242.002 186.13 242.506 186.791 243.127 186.791Z" fill="#3F3D56"/>
<path d="M247.337 172.961C247.491 172.765 247.631 172.558 247.756 172.343L244.8 171.856L247.998 171.877C248.304 171.207 248.47 170.481 248.488 169.745C248.505 169.008 248.373 168.275 248.1 167.591L243.81 169.826L247.765 166.907C247.394 166.265 246.895 165.708 246.3 165.268C245.705 164.829 245.026 164.517 244.306 164.352C243.585 164.187 242.839 164.172 242.113 164.309C241.387 164.447 240.696 164.732 240.085 165.148C239.473 165.565 238.954 166.103 238.558 166.73C238.163 167.356 237.9 168.058 237.787 168.79C237.673 169.523 237.711 170.272 237.897 170.989C238.084 171.707 238.416 172.378 238.873 172.961C238.632 173.266 238.426 173.597 238.256 173.946L242.095 175.95L238.002 174.571C237.716 175.422 237.646 176.331 237.798 177.216C237.95 178.102 238.319 178.935 238.873 179.641C238.248 180.438 237.86 181.396 237.753 182.404C237.645 183.413 237.822 184.431 238.264 185.343C238.706 186.255 239.394 187.025 240.251 187.563C241.107 188.101 242.098 188.386 243.108 188.386C244.118 188.386 245.108 188.101 245.965 187.563C246.821 187.025 247.51 186.255 247.952 185.343C248.393 184.431 248.571 183.413 248.463 182.404C248.355 181.396 247.967 180.438 247.343 179.641C248.091 178.687 248.497 177.51 248.497 176.296C248.497 175.083 248.091 173.905 247.343 172.952L247.337 172.961Z" fill="#ED7878"/>
<path opacity="0.1" d="M237.712 176.295C237.711 177.51 238.12 178.689 238.873 179.641C238.248 180.438 237.86 181.396 237.753 182.404C237.645 183.413 237.822 184.431 238.264 185.343C238.706 186.256 239.394 187.025 240.251 187.563C241.107 188.101 242.097 188.386 243.108 188.386C244.118 188.386 245.108 188.101 245.965 187.563C246.821 187.025 247.51 186.256 247.952 185.343C248.393 184.431 248.571 183.413 248.463 182.404C248.355 181.396 247.967 180.438 247.343 179.641C248.058 178.719 237.712 175.688 237.712 176.295Z" fill="black"/>
<path d="M44.4085 236C52.0908 236 58.3187 234.798 58.3187 233.315C58.3187 231.832 52.0908 230.63 44.4085 230.63C36.7261 230.63 30.4983 231.832 30.4983 233.315C30.4983 234.798 36.7261 236 44.4085 236Z" fill="#ED7878"/>
<path d="M44.1751 234.303C45.0691 234.303 45.7938 233.35 45.7938 232.174C45.7938 230.998 45.0691 230.045 44.1751 230.045C43.2811 230.045 42.5564 230.998 42.5564 232.174C42.5564 233.35 43.2811 234.303 44.1751 234.303Z" fill="#3F3D56"/>
<path d="M44.1751 231.702C45.0691 231.702 45.7938 230.749 45.7938 229.573C45.7938 228.397 45.0691 227.444 44.1751 227.444C43.2811 227.444 42.5564 228.397 42.5564 229.573C42.5564 230.749 43.2811 231.702 44.1751 231.702Z" fill="#3F3D56"/>
<path d="M44.1751 229.102C45.0691 229.102 45.7938 228.148 45.7938 226.972C45.7938 225.796 45.0691 224.843 44.1751 224.843C43.2811 224.843 42.5564 225.796 42.5564 226.972C42.5564 228.148 43.2811 229.102 44.1751 229.102Z" fill="#3F3D56"/>
<path d="M44.1751 226.501C45.0691 226.501 45.7938 225.547 45.7938 224.371C45.7938 223.195 45.0691 222.242 44.1751 222.242C43.2811 222.242 42.5564 223.195 42.5564 224.371C42.5564 225.547 43.2811 226.501 44.1751 226.501Z" fill="#3F3D56"/>
<path d="M44.1751 223.9C45.0691 223.9 45.7938 222.946 45.7938 221.77C45.7938 220.594 45.0691 219.641 44.1751 219.641C43.2811 219.641 42.5564 220.594 42.5564 221.77C42.5564 222.946 43.2811 223.9 44.1751 223.9Z" fill="#3F3D56"/>
<path d="M44.1751 221.296C45.0691 221.296 45.7938 220.343 45.7938 219.167C45.7938 217.991 45.0691 217.037 44.1751 217.037C43.2811 217.037 42.5564 217.991 42.5564 219.167C42.5564 220.343 43.2811 221.296 44.1751 221.296Z" fill="#3F3D56"/>
<path d="M44.1751 218.695C45.0691 218.695 45.7938 217.742 45.7938 216.566C45.7938 215.39 45.0691 214.437 44.1751 214.437C43.2811 214.437 42.5564 215.39 42.5564 216.566C42.5564 217.742 43.2811 218.695 44.1751 218.695Z" fill="#3F3D56"/>
<path d="M50.2371 198.768C50.4562 198.482 50.6561 198.181 50.8355 197.867L46.5808 197.165L51.1826 197.201C51.6236 196.236 51.8641 195.191 51.8893 194.13C51.9145 193.069 51.724 192.014 51.3292 191.029L45.1595 194.255L50.8445 190.05C50.3121 189.123 49.5951 188.316 48.7382 187.679C47.8813 187.043 46.9028 186.59 45.8639 186.35C44.825 186.11 43.748 186.087 42.6999 186.283C41.6519 186.479 40.6554 186.89 39.7726 187.49C38.8899 188.09 38.1397 188.866 37.5691 189.77C36.9984 190.674 36.6195 191.686 36.4559 192.744C36.2924 193.801 36.3477 194.881 36.6184 195.916C36.8891 196.951 37.3694 197.919 38.0294 198.759C37.68 199.198 37.379 199.673 37.1318 200.177L42.6582 203.06L36.7667 201.075C36.3538 202.306 36.2542 203.621 36.4768 204.9C36.6994 206.179 37.2373 207.382 38.0414 208.4C37.1411 209.549 36.5811 210.928 36.4253 212.381C36.2695 213.835 36.5242 215.302 37.1603 216.617C37.7964 217.932 38.7883 219.04 40.0224 219.815C41.2566 220.591 42.6832 221.002 44.1392 221.002C45.5953 221.002 47.0219 220.591 48.2561 219.815C49.4902 219.04 50.482 217.932 51.1181 216.617C51.7542 215.302 52.0089 213.835 51.8531 212.381C51.6973 210.928 51.1373 209.549 50.2371 208.4C51.3131 207.028 51.8981 205.332 51.8981 203.586C51.8981 201.839 51.3131 200.144 50.2371 198.771V198.768Z" fill="#ED7878"/>
<path opacity="0.1" d="M36.3806 203.595C36.3809 205.338 36.9658 207.031 38.0412 208.4C37.141 209.549 36.581 210.928 36.4252 212.381C36.2694 213.834 36.5241 215.302 37.1602 216.617C37.7963 217.931 38.7881 219.04 40.0223 219.815C41.2564 220.591 42.683 221.002 44.1391 221.002C45.5951 221.002 47.0218 220.591 48.2559 219.815C49.49 219.04 50.4819 217.931 51.118 216.617C51.7541 215.302 52.0088 213.834 51.853 212.381C51.6972 210.928 51.1372 209.549 50.2369 208.4C51.2692 207.072 36.3806 202.709 36.3806 203.595Z" fill="black"/>
</g>
<defs>
<filter id="filter0_d" x="57.4844" y="237.812" width="162.078" height="75.125" filterUnits="userSpaceOnUse" color-interpolation-filters="sRGB">
<feFlood flood-opacity="0" result="BackgroundImageFix"/>
<feColorMatrix in="SourceAlpha" type="matrix" values="0 0 0 0 0 0 0 0 0 0 0 0 0 0 0 0 0 0 127 0"/>
<feOffset dx="-5" dy="-5"/>
<feColorMatrix type="matrix" values="0 0 0 0 0.929412 0 0 0 0 0.470588 0 0 0 0 0.470588 0 0 0 0.38 0"/>
<feBlend mode="normal" in2="BackgroundImageFix" result="effect1_dropShadow"/>
<feBlend mode="normal" in="SourceGraphic" in2="effect1_dropShadow" result="shape"/>
</filter>
<linearGradient id="paint0_linear" x1="180.088" y1="230.155" x2="176.098" y2="131.611" gradientUnits="userSpaceOnUse">
<stop stop-color="#808080" stop-opacity="0.25"/>
<stop offset="0.54" stop-color="#808080" stop-opacity="0.12"/>
<stop offset="1" stop-color="#808080" stop-opacity="0.1"/>
</linearGradient>
<clipPath id="clip0">
<rect width="306" height="236" fill="white"/>
</clipPath>
</defs>
</svg>
