<svg width="109" height="27" viewBox="0 0 109 27" fill="none" xmlns="http://www.w3.org/2000/svg">
<path d="M18.5145 7.436L15.0045 20H12.0345L9.67652 11.054L7.21052 20L4.25852 20.018L0.874516 7.436H3.57452L5.78852 17.192L8.34452 7.436H11.1525L13.5645 17.138L15.7965 7.436H18.5145ZM19.512 14.978C19.512 13.97 19.71 13.076 20.106 12.296C20.514 11.516 21.06 10.916 21.744 10.496C22.44 10.076 23.214 9.866 24.066 9.866C24.81 9.866 25.458 10.016 26.01 10.316C26.574 10.616 27.024 10.994 27.36 11.45V10.028H29.898V20H27.36V18.542C27.036 19.01 26.586 19.4 26.01 19.712C25.446 20.012 24.792 20.162 24.048 20.162C23.208 20.162 22.44 19.946 21.744 19.514C21.06 19.082 20.514 18.476 20.106 17.696C19.71 16.904 19.512 15.998 19.512 14.978ZM27.36 15.014C27.36 14.402 27.24 13.88 27 13.448C26.76 13.004 26.436 12.668 26.028 12.44C25.62 12.2 25.182 12.08 24.714 12.08C24.246 12.08 23.814 12.194 23.418 12.422C23.022 12.65 22.698 12.986 22.446 13.43C22.206 13.862 22.086 14.378 22.086 14.978C22.086 15.578 22.206 16.106 22.446 16.562C22.698 17.006 23.022 17.348 23.418 17.588C23.826 17.828 24.258 17.948 24.714 17.948C25.182 17.948 25.62 17.834 26.028 17.606C26.436 17.366 26.76 17.03 27 16.598C27.24 16.154 27.36 15.626 27.36 15.014ZM31.7112 14.996C31.7112 14 31.9152 13.118 32.3232 12.35C32.7432 11.57 33.3072 10.964 34.0152 10.532C34.7232 10.1 35.5032 9.884 36.3552 9.884C37.0632 9.884 37.6872 10.022 38.2272 10.298C38.7792 10.562 39.2232 10.904 39.5592 11.324V10.028H42.0972V24.752H39.5592V18.632C39.2232 19.064 38.7732 19.424 38.2092 19.712C37.6452 20 37.0092 20.144 36.3012 20.144C35.4612 20.144 34.6872 19.928 33.9792 19.496C33.2832 19.052 32.7312 18.44 32.3232 17.66C31.9152 16.88 31.7112 15.992 31.7112 14.996ZM39.5592 15.014C39.5592 14.402 39.4332 13.874 39.1812 13.43C38.9292 12.986 38.5992 12.65 38.1912 12.422C37.7952 12.194 37.3692 12.08 36.9132 12.08C36.4692 12.08 36.0432 12.194 35.6352 12.422C35.2392 12.65 34.9152 12.986 34.6632 13.43C34.4112 13.862 34.2852 14.384 34.2852 14.996C34.2852 15.608 34.4112 16.142 34.6632 16.598C34.9152 17.042 35.2392 17.378 35.6352 17.606C36.0432 17.834 36.4692 17.948 36.9132 17.948C37.3692 17.948 37.7952 17.834 38.1912 17.606C38.5992 17.378 38.9292 17.042 39.1812 16.598C39.4332 16.154 39.5592 15.626 39.5592 15.014ZM49.1304 12.098H47.3844V20H44.8284V12.098H43.6944V10.028H44.8284V9.524C44.8284 8.3 45.1764 7.4 45.8724 6.824C46.5684 6.248 47.6184 5.978 49.0224 6.014V8.138C48.4104 8.126 47.9844 8.228 47.7444 8.444C47.5044 8.66 47.3844 9.05 47.3844 9.614V10.028H49.1304V12.098Z" fill="#FBF3F3"/>
<path d="M65.3488 7.49V20H63.2968V14.528H57.4108V20H55.3588V7.49H57.4108V12.854H63.2968V7.49H65.3488ZM72.3522 20.162C71.4162 20.162 70.5702 19.952 69.8142 19.532C69.0582 19.1 68.4642 18.5 68.0322 17.732C67.6002 16.952 67.3842 16.052 67.3842 15.032C67.3842 14.024 67.6062 13.13 68.0502 12.35C68.4942 11.57 69.1002 10.97 69.8682 10.55C70.6362 10.13 71.4942 9.92 72.4422 9.92C73.3902 9.92 74.2482 10.13 75.0162 10.55C75.7842 10.97 76.3902 11.57 76.8342 12.35C77.2782 13.13 77.5002 14.024 77.5002 15.032C77.5002 16.04 77.2722 16.934 76.8162 17.714C76.3602 18.494 75.7362 19.1 74.9442 19.532C74.1642 19.952 73.3002 20.162 72.3522 20.162ZM72.3522 18.38C72.8802 18.38 73.3722 18.254 73.8282 18.002C74.2962 17.75 74.6742 17.372 74.9622 16.868C75.2502 16.364 75.3942 15.752 75.3942 15.032C75.3942 14.312 75.2562 13.706 74.9802 13.214C74.7042 12.71 74.3382 12.332 73.8822 12.08C73.4262 11.828 72.9342 11.702 72.4062 11.702C71.8782 11.702 71.3862 11.828 70.9302 12.08C70.4862 12.332 70.1322 12.71 69.8682 13.214C69.6042 13.706 69.4722 14.312 69.4722 15.032C69.4722 16.1 69.7422 16.928 70.2822 17.516C70.8342 18.092 71.5242 18.38 72.3522 18.38ZM91.5347 9.92C92.3147 9.92 93.0107 10.082 93.6227 10.406C94.2467 10.73 94.7327 11.21 95.0807 11.846C95.4407 12.482 95.6207 13.25 95.6207 14.15V20H93.5867V14.456C93.5867 13.568 93.3647 12.89 92.9207 12.422C92.4767 11.942 91.8707 11.702 91.1027 11.702C90.3347 11.702 89.7227 11.942 89.2667 12.422C88.8227 12.89 88.6007 13.568 88.6007 14.456V20H86.5667V14.456C86.5667 13.568 86.3447 12.89 85.9007 12.422C85.4567 11.942 84.8507 11.702 84.0827 11.702C83.3147 11.702 82.7027 11.942 82.2467 12.422C81.8027 12.89 81.5807 13.568 81.5807 14.456V20H79.5287V10.082H81.5807V11.216C81.9167 10.808 82.3427 10.49 82.8587 10.262C83.3747 10.034 83.9267 9.92 84.5147 9.92C85.3067 9.92 86.0147 10.088 86.6387 10.424C87.2627 10.76 87.7427 11.246 88.0787 11.882C88.3787 11.282 88.8467 10.808 89.4827 10.46C90.1187 10.1 90.8027 9.92 91.5347 9.92ZM107.322 14.798C107.322 15.17 107.298 15.506 107.25 15.806H99.6718C99.7318 16.598 100.026 17.234 100.554 17.714C101.082 18.194 101.73 18.434 102.498 18.434C103.602 18.434 104.382 17.972 104.838 17.048H107.052C106.752 17.96 106.206 18.71 105.414 19.298C104.634 19.874 103.662 20.162 102.498 20.162C101.55 20.162 100.698 19.952 99.9418 19.532C99.1978 19.1 98.6098 18.5 98.1778 17.732C97.7578 16.952 97.5478 16.052 97.5478 15.032C97.5478 14.012 97.7518 13.118 98.1598 12.35C98.5798 11.57 99.1618 10.97 99.9058 10.55C100.662 10.13 101.526 9.92 102.498 9.92C103.434 9.92 104.268 10.124 105 10.532C105.732 10.94 106.302 11.516 106.71 12.26C107.118 12.992 107.322 13.838 107.322 14.798ZM105.18 14.15C105.168 13.394 104.898 12.788 104.37 12.332C103.842 11.876 103.188 11.648 102.408 11.648C101.7 11.648 101.094 11.876 100.59 12.332C100.086 12.776 99.7858 13.382 99.6898 14.15H105.18Z" fill="#3A3A3A"/>
<path d="M65.3488 7.49H66.3488V6.49H65.3488V7.49ZM65.3488 20V21H66.3488V20H65.3488ZM63.2968 20H62.2968V21H63.2968V20ZM63.2968 14.528H64.2968V13.528H63.2968V14.528ZM57.4108 14.528V13.528H56.4108V14.528H57.4108ZM57.4108 20V21H58.4108V20H57.4108ZM55.3588 20H54.3588V21H55.3588V20ZM55.3588 7.49V6.49H54.3588V7.49H55.3588ZM57.4108 7.49H58.4108V6.49H57.4108V7.49ZM57.4108 12.854H56.4108V13.854H57.4108V12.854ZM63.2968 12.854V13.854H64.2968V12.854H63.2968ZM63.2968 7.49V6.49H62.2968V7.49H63.2968ZM64.3488 7.49V20H66.3488V7.49H64.3488ZM65.3488 19H63.2968V21H65.3488V19ZM64.2968 20V14.528H62.2968V20H64.2968ZM63.2968 13.528H57.4108V15.528H63.2968V13.528ZM56.4108 14.528V20H58.4108V14.528H56.4108ZM57.4108 19H55.3588V21H57.4108V19ZM56.3588 20V7.49H54.3588V20H56.3588ZM55.3588 8.49H57.4108V6.49H55.3588V8.49ZM56.4108 7.49V12.854H58.4108V7.49H56.4108ZM57.4108 13.854H63.2968V11.854H57.4108V13.854ZM64.2968 12.854V7.49H62.2968V12.854H64.2968ZM63.2968 8.49H65.3488V6.49H63.2968V8.49ZM69.8142 19.532L69.318 20.4003L69.3286 20.4062L69.8142 19.532ZM68.0322 17.732L67.1574 18.2165L67.1606 18.2223L68.0322 17.732ZM69.8682 10.55L69.3884 9.67263L69.3884 9.67263L69.8682 10.55ZM75.0162 10.55L75.496 9.67263L75.496 9.67263L75.0162 10.55ZM76.8162 17.714L75.9529 17.2093L76.8162 17.714ZM74.9442 19.532L75.4183 20.4125L75.423 20.4099L74.9442 19.532ZM73.8282 18.002L73.3541 17.1215L73.3445 17.1268L73.8282 18.002ZM74.9622 16.868L74.094 16.3719L74.094 16.3719L74.9622 16.868ZM74.9802 13.214L74.1031 13.6943L74.1081 13.7033L74.9802 13.214ZM70.9302 12.08L70.4465 11.2047L70.4366 11.2103L70.9302 12.08ZM69.8682 13.214L70.7494 13.6868L70.754 13.678L69.8682 13.214ZM70.2822 17.516L69.5457 18.1924L69.5529 18.2002L69.5602 18.2079L70.2822 17.516ZM72.3522 19.162C71.5718 19.162 70.8952 18.9886 70.2998 18.6578L69.3286 20.4062C70.2452 20.9154 71.2606 21.162 72.3522 21.162V19.162ZM70.3103 18.6638C69.7133 18.3226 69.2482 17.8541 68.9038 17.2417L67.1606 18.2223C67.6802 19.1459 68.4031 19.8774 69.3181 20.4002L70.3103 18.6638ZM68.907 17.2475C68.5683 16.636 68.3842 15.9072 68.3842 15.032H66.3842C66.3842 16.1968 66.6321 17.268 67.1574 18.2165L68.907 17.2475ZM68.3842 15.032C68.3842 14.1757 68.5712 13.4561 68.9193 12.8447L67.1811 11.8553C66.6412 12.8039 66.3842 13.8723 66.3842 15.032H68.3842ZM68.9193 12.8447C69.274 12.2216 69.747 11.756 70.348 11.4274L69.3884 9.67263C68.4534 10.184 67.7144 10.9184 67.1811 11.8553L68.9193 12.8447ZM70.348 11.4274C70.9568 11.0944 71.6476 10.92 72.4422 10.92V8.92C71.3408 8.92 70.3156 9.16558 69.3884 9.67263L70.348 11.4274ZM72.4422 10.92C73.2368 10.92 73.9276 11.0944 74.5364 11.4274L75.496 9.67263C74.5688 9.16558 73.5436 8.92 72.4422 8.92V10.92ZM74.5364 11.4274C75.1374 11.756 75.6104 12.2216 75.9651 12.8447L77.7033 11.8553C77.17 10.9184 76.431 10.184 75.496 9.67263L74.5364 11.4274ZM75.9651 12.8447C76.3132 13.4561 76.5002 14.1757 76.5002 15.032H78.5002C78.5002 13.8723 78.2432 12.8039 77.7033 11.8553L75.9651 12.8447ZM76.5002 15.032C76.5002 15.8836 76.3093 16.5996 75.9529 17.2093L77.6795 18.2187C78.2351 17.2684 78.5002 16.1964 78.5002 15.032H76.5002ZM75.9529 17.2093C75.5886 17.8325 75.0974 18.3094 74.4653 18.6541L75.423 20.4099C76.375 19.8906 77.1318 19.1555 77.6795 18.2187L75.9529 17.2093ZM74.4701 18.6515C73.846 18.9876 73.1466 19.162 72.3522 19.162V21.162C73.4537 21.162 74.4824 20.9164 75.4183 20.4125L74.4701 18.6515ZM72.3522 19.38C73.047 19.38 73.7057 19.2122 74.3119 18.8772L73.3445 17.1268C73.0387 17.2958 72.7134 17.38 72.3522 17.38V19.38ZM74.3023 18.8825C74.9501 18.5337 75.4585 18.0151 75.8304 17.3641L74.094 16.3719C73.8899 16.7289 73.6423 16.9663 73.3541 17.1215L74.3023 18.8825ZM75.8304 17.3641C76.2232 16.6768 76.3942 15.8846 76.3942 15.032H74.3942C74.3942 15.6194 74.2772 16.0512 74.094 16.3719L75.8304 17.3641ZM76.3942 15.032C76.3942 14.187 76.2322 13.402 75.8523 12.7247L74.1081 13.7033C74.2801 14.01 74.3942 14.437 74.3942 15.032H76.3942ZM75.8573 12.7337C75.4999 12.0811 75.0046 11.5578 74.3659 11.2048L73.3985 12.9552C73.6718 13.1062 73.9084 13.3389 74.1031 13.6943L75.8573 12.7337ZM74.3659 11.2048C73.7597 10.8698 73.101 10.702 72.4062 10.702V12.702C72.7674 12.702 73.0927 12.7862 73.3985 12.9552L74.3659 11.2048ZM72.4062 10.702C71.7114 10.702 71.0527 10.8698 70.4465 11.2048L71.4139 12.9552C71.7197 12.7862 72.045 12.702 72.4062 12.702V10.702ZM70.4366 11.2103C69.8069 11.5677 69.3249 12.096 68.9824 12.75L70.754 13.678C70.9395 13.324 71.1655 13.0963 71.4238 12.9497L70.4366 11.2103ZM68.987 12.7412C68.6257 13.4146 68.4722 14.1934 68.4722 15.032H70.4722C70.4722 14.4306 70.5827 13.9974 70.7494 13.6868L68.987 12.7412ZM68.4722 15.032C68.4722 16.2643 68.7858 17.365 69.5457 18.1924L71.0187 16.8396C70.6986 16.491 70.4722 15.9357 70.4722 15.032H68.4722ZM69.5602 18.2079C70.3087 18.9889 71.2632 19.38 72.3522 19.38V17.38C71.7852 17.38 71.3597 17.1951 71.0042 16.8241L69.5602 18.2079ZM93.6227 10.406L93.1548 11.2898L93.1619 11.2935L93.6227 10.406ZM95.0807 11.846L94.2035 12.326L94.2069 12.3323L94.2105 12.3386L95.0807 11.846ZM95.6207 20V21H96.6207V20H95.6207ZM93.5867 20H92.5867V21H93.5867V20ZM92.9207 12.422L92.1866 13.1011L92.1952 13.1103L92.9207 12.422ZM89.2667 12.422L88.5417 11.7332L88.5412 11.7337L89.2667 12.422ZM88.6007 20V21H89.6007V20H88.6007ZM86.5667 20H85.5667V21H86.5667V20ZM85.9007 12.422L85.1666 13.1011L85.1752 13.1103L85.9007 12.422ZM82.2467 12.422L81.5217 11.7332L81.5212 11.7337L82.2467 12.422ZM81.5807 20V21H82.5807V20H81.5807ZM79.5287 20H78.5287V21H79.5287V20ZM79.5287 10.082V9.082H78.5287V10.082H79.5287ZM81.5807 10.082H82.5807V9.082H81.5807V10.082ZM81.5807 11.216H80.5807V14.0033L82.3526 11.8517L81.5807 11.216ZM82.8587 10.262L83.2629 11.1767L83.2629 11.1767L82.8587 10.262ZM86.6387 10.424L87.1128 9.54353L87.1128 9.54353L86.6387 10.424ZM88.0787 11.882L87.1945 12.3491L88.1032 14.0691L88.9731 12.3292L88.0787 11.882ZM89.4827 10.46L89.9627 11.3373L89.969 11.3338L89.9753 11.3303L89.4827 10.46ZM91.5347 10.92C92.1725 10.92 92.7044 11.0513 93.1548 11.2898L94.0906 9.52221C93.3171 9.11269 92.4569 8.92 91.5347 8.92V10.92ZM93.1619 11.2935C93.604 11.523 93.9476 11.8584 94.2035 12.326L95.958 11.366C95.5178 10.5616 94.8894 9.93696 94.0835 9.5185L93.1619 11.2935ZM94.2105 12.3386C94.4678 12.7933 94.6207 13.383 94.6207 14.15H96.6207C96.6207 13.117 96.4136 12.1707 95.951 11.3534L94.2105 12.3386ZM94.6207 14.15V20H96.6207V14.15H94.6207ZM95.6207 19H93.5867V21H95.6207V19ZM94.5867 20V14.456H92.5867V20H94.5867ZM94.5867 14.456C94.5867 13.4096 94.3238 12.448 93.6462 11.7337L92.1952 13.1103C92.4056 13.332 92.5867 13.7264 92.5867 14.456H94.5867ZM93.6548 11.743C92.9883 11.0224 92.0964 10.702 91.1027 10.702V12.702C91.6451 12.702 91.9652 12.8616 92.1866 13.101L93.6548 11.743ZM91.1027 10.702C90.1084 10.702 89.2171 11.0223 88.5417 11.7332L89.9917 13.1107C90.2283 12.8617 90.561 12.702 91.1027 12.702V10.702ZM88.5412 11.7337C87.8636 12.448 87.6007 13.4096 87.6007 14.456H89.6007C89.6007 13.7264 89.7818 13.332 89.9922 13.1103L88.5412 11.7337ZM87.6007 14.456V20H89.6007V14.456H87.6007ZM88.6007 19H86.5667V21H88.6007V19ZM87.5667 20V14.456H85.5667V20H87.5667ZM87.5667 14.456C87.5667 13.4096 87.3038 12.448 86.6262 11.7337L85.1752 13.1103C85.3856 13.332 85.5667 13.7264 85.5667 14.456H87.5667ZM86.6348 11.743C85.9683 11.0224 85.0764 10.702 84.0827 10.702V12.702C84.6251 12.702 84.9452 12.8616 85.1666 13.101L86.6348 11.743ZM84.0827 10.702C83.0884 10.702 82.1971 11.0223 81.5217 11.7332L82.9717 13.1107C83.2083 12.8617 83.541 12.702 84.0827 12.702V10.702ZM81.5212 11.7337C80.8436 12.448 80.5807 13.4096 80.5807 14.456H82.5807C82.5807 13.7264 82.7618 13.332 82.9722 13.1103L81.5212 11.7337ZM80.5807 14.456V20H82.5807V14.456H80.5807ZM81.5807 19H79.5287V21H81.5807V19ZM80.5287 20V10.082H78.5287V20H80.5287ZM79.5287 11.082H81.5807V9.082H79.5287V11.082ZM80.5807 10.082V11.216H82.5807V10.082H80.5807ZM82.3526 11.8517C82.5829 11.5721 82.8797 11.346 83.2629 11.1767L82.4545 9.34731C81.8057 9.634 81.2506 10.0439 80.8088 10.5803L82.3526 11.8517ZM83.2629 11.1767C83.6462 11.0073 84.0599 10.92 84.5147 10.92V8.92C83.7935 8.92 83.1033 9.06067 82.4545 9.34731L83.2629 11.1767ZM84.5147 10.92C85.161 10.92 85.7028 11.0558 86.1646 11.3045L87.1128 9.54353C86.3266 9.1202 85.4524 8.92 84.5147 8.92V10.92ZM86.1646 11.3045C86.6112 11.5449 86.9497 11.8857 87.1945 12.3491L88.9629 11.4149C88.5357 10.6063 87.9142 9.97507 87.1128 9.54353L86.1646 11.3045ZM88.9731 12.3292C89.1746 11.9263 89.4903 11.5958 89.9627 11.3373L89.0027 9.58274C88.2031 10.0202 87.5828 10.6377 87.1843 11.4348L88.9731 12.3292ZM89.9753 11.3303C90.4608 11.0554 90.9751 10.92 91.5347 10.92V8.92C90.6304 8.92 89.7766 9.14455 88.9901 9.58974L89.9753 11.3303ZM107.25 15.806V16.806H108.103L108.237 15.964L107.25 15.806ZM99.6718 15.806V14.806H98.5932L98.6747 15.8815L99.6718 15.806ZM100.554 17.714L99.8812 18.4539L99.8812 18.4539L100.554 17.714ZM104.838 17.048V16.048H104.216L103.941 16.6055L104.838 17.048ZM107.052 17.048L108.002 17.3605L108.433 16.048H107.052V17.048ZM105.414 19.298L106.008 20.1024L106.01 20.1009L105.414 19.298ZM99.9418 19.532L99.4397 20.3968L99.4479 20.4016L99.4562 20.4062L99.9418 19.532ZM98.1778 17.732L97.2974 18.2061L97.3017 18.2142L97.3063 18.2223L98.1778 17.732ZM98.1598 12.35L97.2794 11.8759L97.2767 11.8808L98.1598 12.35ZM99.9058 10.55L99.4202 9.67582L99.4142 9.67918L99.9058 10.55ZM105 10.532L105.487 9.65852L105.487 9.65852L105 10.532ZM106.71 12.26L105.833 12.7408L105.836 12.7469L106.71 12.26ZM105.18 14.15V15.15H106.196L106.18 14.1341L105.18 14.15ZM104.37 12.332L105.023 11.5752L105.023 11.5752L104.37 12.332ZM100.59 12.332L101.251 13.0824L101.261 13.0735L100.59 12.332ZM99.6898 14.15L98.6976 14.026L98.5571 15.15H99.6898V14.15ZM106.322 14.798C106.322 15.1284 106.3 15.4103 106.262 15.648L108.237 15.964C108.295 15.6017 108.322 15.2116 108.322 14.798H106.322ZM107.25 14.806H99.6718V16.806H107.25V14.806ZM98.6747 15.8815C98.7516 16.897 99.1421 17.7821 99.8812 18.4539L101.227 16.9741C100.91 16.6859 100.712 16.299 100.669 15.7305L98.6747 15.8815ZM99.8812 18.4539C100.608 19.1147 101.502 19.434 102.498 19.434V17.434C101.958 17.434 101.556 17.2733 101.227 16.9741L99.8812 18.4539ZM102.498 19.434C103.19 19.434 103.846 19.2883 104.42 18.9479C104.999 18.6051 105.433 18.102 105.735 17.4905L103.941 16.6055C103.787 16.918 103.602 17.1079 103.401 17.2271C103.196 17.3487 102.91 17.434 102.498 17.434V19.434ZM104.838 18.048H107.052V16.048H104.838V18.048ZM106.102 16.7355C105.868 17.4458 105.449 18.0265 104.818 18.4951L106.01 20.1009C106.963 19.3935 107.635 18.4742 108.002 17.3605L106.102 16.7355ZM104.82 18.4936C104.244 18.9187 103.492 19.162 102.498 19.162V21.162C103.832 21.162 105.024 20.8293 106.008 20.1024L104.82 18.4936ZM102.498 19.162C101.703 19.162 101.021 18.9875 100.427 18.6578L99.4562 20.4062C100.375 20.9165 101.397 21.162 102.498 21.162V19.162ZM100.444 18.6672C99.8582 18.3271 99.3961 17.8581 99.0494 17.2417L97.3063 18.2223C97.8235 19.1419 98.5375 19.8729 99.4397 20.3968L100.444 18.6672ZM99.0583 17.2579C98.7279 16.6443 98.5478 15.9118 98.5478 15.032H96.5478C96.5478 16.1922 96.7877 17.2597 97.2974 18.2061L99.0583 17.2579ZM98.5478 15.032C98.5478 14.1473 98.724 13.4196 99.043 12.8192L97.2767 11.8808C96.7797 12.8164 96.5478 13.8767 96.5478 15.032H98.5478ZM99.0403 12.8241C99.3742 12.204 99.8242 11.7444 100.397 11.4208L99.4142 9.67918C98.4995 10.1956 97.7854 10.936 97.2794 11.8759L99.0403 12.8241ZM100.391 11.4242C100.981 11.0965 101.674 10.92 102.498 10.92V8.92C101.377 8.92 100.342 9.16349 99.4202 9.67584L100.391 11.4242ZM102.498 10.92C103.284 10.92 103.947 11.0898 104.513 11.4055L105.487 9.65852C104.589 9.15819 103.584 8.92 102.498 8.92V10.92ZM104.513 11.4055C105.078 11.7207 105.514 12.1596 105.833 12.7408L107.587 11.7792C107.089 10.8724 106.385 10.1593 105.487 9.65852L104.513 11.4055ZM105.836 12.7469C106.15 13.3095 106.322 13.9833 106.322 14.798H108.322C108.322 13.6927 108.086 12.6745 107.583 11.7731L105.836 12.7469ZM106.18 14.1341C106.164 13.1199 105.787 12.2344 105.023 11.5752L103.716 13.0888C104.009 13.3416 104.172 13.6681 104.18 14.1659L106.18 14.1341ZM105.023 11.5752C104.292 10.9436 103.398 10.648 102.408 10.648V12.648C102.978 12.648 103.392 12.8084 103.716 13.0888L105.023 11.5752ZM102.408 10.648C101.463 10.648 100.615 10.9607 99.9189 11.5905L101.261 13.0735C101.573 12.7913 101.936 12.648 102.408 12.648V10.648ZM99.9288 11.5816C99.214 12.2114 98.8189 13.055 98.6976 14.026L100.682 14.274C100.753 13.709 100.958 13.3406 101.251 13.0824L99.9288 11.5816ZM99.6898 15.15H105.18V13.15H99.6898V15.15Z" fill="#F0F0F0"/>
</svg>
